<?xml version="1.0" encoding="UTF-8"?>
<svg xmlns="http://www.w3.org/2000/svg" xmlns:xlink="http://www.w3.org/1999/xlink" viewBox="0 0 700 550">
  <defs>
    <style>
      .cls-1 {
        fill: url(#linear-gradient-2);
      }

      .cls-2 {
        fill: #fff;
      }

      .cls-3 {
        isolation: isolate;
      }

      .cls-4 {
        mix-blend-mode: color-dodge;
        opacity: .4;
      }

      .cls-5 {
        clip-path: url(#clippath);
      }

      .cls-6 {
        fill: none;
      }

      .cls-7 {
        fill: url(#linear-gradient-3);
      }

      .cls-8 {
        fill: url(#linear-gradient);
      }

      .cls-9 {
        fill: url(#linear-gradient-4);
      }
    </style>
    <clipPath id="clippath">
      <rect class="cls-6" y="25" width="700" height="500"/>
    </clipPath>
    <linearGradient id="linear-gradient" x1="73.18" y1="211.34" x2="609.68" y2="330.94" gradientUnits="userSpaceOnUse">
      <stop offset=".25" stop-color="#70f2a4"/>
      <stop offset=".25" stop-color="#6ff1a4"/>
      <stop offset=".65" stop-color="#56bdda"/>
      <stop offset=".85" stop-color="#4ca9f0"/>
    </linearGradient>
    <linearGradient id="linear-gradient-2" x1="25.42" y1="227.68" x2="711.43" y2="321.01" gradientUnits="userSpaceOnUse">
      <stop offset=".12" stop-color="#70f2a4"/>
      <stop offset=".85" stop-color="#4ca9f0"/>
    </linearGradient>
    <linearGradient id="linear-gradient-3" x1="3.3" y1="269.97" x2="695.39" y2="269.97" gradientUnits="userSpaceOnUse">
      <stop offset="0" stop-color="#70f2a4" stop-opacity=".5"/>
      <stop offset="1" stop-color="#4ca9f0" stop-opacity=".5"/>
    </linearGradient>
    <linearGradient id="linear-gradient-4" x1="3.3" y1="269.97" x2="695.39" y2="269.97" gradientUnits="userSpaceOnUse">
      <stop offset="0" stop-color="#70f2a4" stop-opacity=".5"/>
      <stop offset="1" stop-color="#4ca9f0" stop-opacity=".5"/>
    </linearGradient>
  </defs>
  <g class="cls-3">
    <g id="_750_x_500_px" data-name="750 x 500 px">
      <g class="cls-5">
        <g>
          <g class="cls-4">
            <polygon class="cls-8" points="695.39 269.97 692.69 313.4 689.99 287.97 687.29 329.29 684.59 275.26 681.88 280.56 679.18 274.2 676.48 285.86 673.78 274.2 671.08 287.97 668.38 274.2 665.67 278.44 662.97 273.14 660.27 289.03 657.57 273.14 654.87 302.81 652.17 273.14 649.46 293.27 646.76 274.2 644.06 302.81 641.36 277.38 638.66 290.09 635.96 281.62 633.25 300.69 630.55 277.38 627.85 317.64 625.15 284.8 622.45 334.59 619.75 292.21 617.04 358.95 614.34 297.51 611.64 363.19 608.94 303.87 606.24 381.2 603.54 325.05 600.83 379.08 598.13 346.24 595.43 383.32 592.73 321.88 590.03 376.96 587.33 312.34 584.62 348.36 581.92 298.57 579.22 331.41 576.52 273.14 573.82 310.22 571.12 273.14 568.42 285.86 565.71 272.08 563.01 276.32 560.31 273.14 557.61 277.38 554.91 275.26 552.21 285.86 549.5 273.14 546.8 289.03 544.1 272.08 541.4 276.32 538.7 273.14 536 289.03 533.29 275.26 530.59 282.68 527.89 277.38 525.19 297.51 522.49 280.56 519.79 330.35 517.08 276.32 514.38 303.87 511.68 276.32 508.98 319.76 506.28 280.56 503.58 354.72 500.87 281.62 498.17 379.08 495.47 301.75 492.77 348.36 490.07 295.39 487.37 332.47 484.66 273.14 481.96 301.75 479.26 273.14 476.56 287.97 473.86 274.2 471.16 299.63 468.45 274.2 465.75 294.33 463.05 273.14 460.35 289.03 457.65 273.14 454.95 318.7 452.25 311.28 449.54 337.77 446.84 293.27 444.14 323.99 441.44 303.87 438.74 313.4 436.04 292.21 433.33 354.72 430.63 303.87 427.93 372.73 425.23 302.81 422.53 381.2 419.83 317.64 417.12 382.26 414.42 298.57 411.72 349.42 409.02 295.39 406.32 327.17 403.62 277.38 400.91 297.51 398.21 274.2 395.51 300.69 392.81 279.5 390.11 323.99 387.41 290.09 384.7 304.93 382 282.68 379.3 297.51 376.6 269.97 373.9 283.74 371.2 272.08 368.49 295.39 365.79 271.02 363.09 284.8 360.39 275.26 357.69 279.5 354.99 269.97 352.28 276.32 349.58 269.97 346.41 313.4 343.7 287.97 341 329.29 338.3 275.26 335.6 280.56 332.9 274.2 330.2 285.86 327.49 274.2 324.79 287.97 322.09 274.2 319.39 278.44 316.69 273.14 313.99 289.03 311.28 273.14 308.58 302.81 305.88 273.14 303.18 293.27 300.48 274.2 297.78 302.81 295.07 277.38 292.37 290.09 289.67 281.62 286.97 300.69 284.27 277.38 281.57 317.64 278.86 284.8 276.16 334.59 273.46 292.21 270.76 358.95 268.06 297.51 265.36 363.19 262.66 303.87 259.95 381.2 257.25 325.05 254.55 379.08 251.85 346.24 249.15 383.32 246.45 321.88 243.74 376.96 241.04 312.34 238.34 348.36 235.64 298.57 232.94 331.41 230.24 273.14 227.53 310.22 224.83 273.14 222.13 285.86 219.43 272.08 216.73 276.32 214.03 273.14 211.32 277.38 208.62 275.26 205.92 285.86 203.22 273.14 200.52 289.03 197.82 272.08 195.11 276.32 192.41 273.14 189.71 289.03 187.01 275.26 184.31 282.68 181.61 277.38 178.9 297.51 176.2 280.56 173.5 330.35 170.8 276.32 168.1 303.87 165.4 276.32 162.69 319.76 159.99 280.56 157.29 354.72 154.59 281.62 151.89 379.08 149.19 301.75 146.49 348.36 143.78 295.39 141.08 332.47 138.38 273.14 135.68 301.75 132.98 273.14 130.28 287.97 127.57 274.2 124.87 299.63 122.17 274.2 119.47 294.33 116.77 273.14 114.07 289.03 111.36 273.14 108.66 318.7 105.96 311.28 103.26 337.77 100.56 293.27 97.86 323.99 95.15 303.87 92.45 313.4 89.75 292.21 87.05 354.72 84.35 303.87 81.65 372.73 78.94 302.81 76.24 381.2 73.54 317.64 70.84 382.26 68.14 298.57 65.44 349.42 62.73 295.39 60.03 327.17 57.33 277.38 54.63 297.51 51.93 274.2 49.23 300.69 46.52 279.5 43.82 323.99 41.12 290.09 38.42 304.93 35.72 282.68 33.02 297.51 30.32 269.97 27.61 283.74 24.91 272.08 22.21 295.39 19.51 271.02 16.81 284.8 14.11 275.26 11.4 279.5 8.7 269.97 6 276.32 3.3 269.97 6 263.61 8.7 269.97 11.4 260.43 14.11 264.67 16.81 255.13 19.51 268.91 22.21 244.54 24.91 267.85 27.61 256.19 30.32 269.97 33.02 242.42 35.72 257.25 38.42 235.01 41.12 249.84 43.82 215.94 46.52 260.43 49.23 239.24 51.93 265.73 54.63 242.42 57.33 262.55 60.03 212.76 62.73 244.54 65.44 190.51 68.14 241.36 70.84 157.67 73.54 222.29 76.24 158.73 78.94 237.12 81.65 167.2 84.35 236.06 87.05 185.21 89.75 247.72 92.45 226.53 95.15 236.06 97.86 215.94 100.56 246.66 103.26 202.16 105.96 228.65 108.66 221.23 111.36 266.79 114.07 250.9 116.77 266.79 119.47 245.6 122.17 265.73 124.87 240.3 127.57 265.73 130.28 251.96 132.98 266.79 135.68 238.18 138.38 266.79 141.08 207.46 143.78 244.54 146.49 191.57 149.19 238.18 151.89 160.85 154.59 258.31 157.29 185.21 159.99 259.37 162.69 220.17 165.4 263.61 168.1 236.06 170.8 263.61 173.5 209.58 176.2 259.37 178.9 242.42 181.61 262.55 184.31 257.25 187.01 264.67 189.71 250.9 192.41 266.79 195.11 263.61 197.82 267.85 200.52 250.9 203.22 266.79 205.92 254.07 208.62 264.67 211.32 262.55 214.03 266.79 216.73 263.61 219.43 267.85 222.13 254.07 224.83 266.79 227.53 229.71 230.24 266.79 232.94 208.52 235.64 241.36 238.34 191.57 241.04 227.59 243.74 162.97 246.45 218.06 249.15 156.61 251.85 193.69 254.55 160.85 257.25 214.88 259.95 158.73 262.66 236.06 265.36 176.74 268.06 242.42 270.76 180.98 273.46 247.72 276.16 205.34 278.86 255.13 281.57 222.29 284.27 262.55 286.97 239.24 289.67 258.31 292.37 249.84 295.07 262.55 297.78 237.12 300.48 265.73 303.18 246.66 305.88 266.79 308.58 237.12 311.28 266.79 313.99 250.9 316.69 266.79 319.39 261.49 322.09 265.73 324.79 251.96 327.49 265.73 330.2 254.07 332.9 265.73 335.6 259.37 338.3 264.67 341 210.64 343.7 251.96 346.41 226.53 349.58 269.97 352.28 263.61 354.99 269.97 357.69 260.43 360.39 264.67 363.09 255.13 365.79 268.91 368.49 244.54 371.2 267.85 373.9 256.19 376.6 269.97 379.3 242.42 382 257.25 384.7 235.01 387.41 249.84 390.11 215.94 392.81 260.43 395.51 239.24 398.21 265.73 400.91 242.42 403.62 262.55 406.32 212.76 409.02 244.54 411.72 190.51 414.42 241.36 417.12 157.67 419.83 222.29 422.53 158.73 425.23 237.12 427.93 167.2 430.63 236.06 433.33 185.21 436.04 247.72 438.74 226.53 441.44 236.06 444.14 215.94 446.84 246.66 449.54 202.16 452.25 228.65 454.95 221.23 457.65 266.79 460.35 250.9 463.05 266.79 465.75 245.6 468.45 265.73 471.16 240.3 473.86 265.73 476.56 251.96 479.26 266.79 481.96 238.18 484.66 266.79 487.37 207.46 490.07 244.54 492.77 191.57 495.47 238.18 498.17 160.85 500.87 258.31 503.58 185.21 506.28 259.37 508.98 220.17 511.68 263.61 514.38 236.06 517.08 263.61 519.79 209.58 522.49 259.37 525.19 242.42 527.89 262.55 530.59 257.25 533.29 264.67 536 250.9 538.7 266.79 541.4 263.61 544.1 267.85 546.8 250.9 549.5 266.79 552.21 254.07 554.91 264.67 557.61 262.55 560.31 266.79 563.01 263.61 565.71 267.85 568.42 254.07 571.12 266.79 573.82 229.71 576.52 266.79 579.22 208.52 581.92 241.36 584.62 191.57 587.33 227.59 590.03 162.97 592.73 218.06 595.43 156.61 598.13 193.69 600.83 160.85 603.54 214.88 606.24 158.73 608.94 236.06 611.64 176.74 614.34 242.42 617.04 180.98 619.75 247.72 622.45 205.34 625.15 255.13 627.85 222.29 630.55 262.55 633.25 239.24 635.96 258.31 638.66 249.84 641.36 262.55 644.06 237.12 646.76 265.73 649.46 246.66 652.17 266.79 654.87 237.12 657.57 266.79 660.27 250.9 662.97 266.79 665.67 261.49 668.38 265.73 671.08 251.96 673.78 265.73 676.48 254.07 679.18 265.73 681.88 259.37 684.59 264.67 687.29 210.64 689.99 251.96 692.69 226.53 695.39 269.97"/>
          </g>
          <g class="cls-4">
            <polygon class="cls-1" points="695.39 269.97 692.69 295.9 689.99 280.72 687.29 305.38 684.59 273.13 681.88 276.29 679.18 272.5 676.48 279.45 673.78 272.5 671.08 280.72 668.38 272.5 665.67 275.02 662.97 271.86 660.27 281.35 657.57 271.86 654.87 289.57 652.17 271.86 649.46 283.88 646.76 272.5 644.06 289.57 641.36 274.39 638.66 281.98 635.96 276.92 633.25 288.31 630.55 274.39 627.85 298.43 625.15 278.82 622.45 308.54 619.75 283.25 617.04 323.09 614.34 286.41 611.64 325.62 608.94 290.2 606.24 336.37 603.54 302.85 600.83 335.11 598.13 315.5 595.43 337.64 592.73 300.96 590.03 333.84 587.33 295.26 584.62 316.77 581.92 287.04 579.22 306.65 576.52 271.86 573.82 294 571.12 271.86 568.42 279.45 565.71 271.23 563.01 273.76 560.31 271.86 557.61 274.39 554.91 273.13 552.21 279.45 549.5 271.86 546.8 281.35 544.1 271.23 541.4 273.76 538.7 271.86 536 281.35 533.29 273.13 530.59 277.55 527.89 274.39 525.19 286.41 522.49 276.29 519.79 306.01 517.08 273.76 514.38 290.2 511.68 273.76 508.98 299.69 506.28 276.29 503.58 320.56 500.87 276.92 498.17 335.11 495.47 288.94 492.77 316.77 490.07 285.14 487.37 307.28 484.66 271.86 481.96 288.94 479.26 271.86 476.56 280.72 473.86 272.5 471.16 287.67 468.45 272.5 465.75 284.51 463.05 271.86 460.35 281.35 457.65 271.86 454.95 299.06 452.25 294.63 449.54 310.44 446.84 283.88 444.14 302.22 441.44 290.2 438.74 295.9 436.04 283.25 433.33 320.56 430.63 290.2 427.93 331.31 425.23 289.57 422.53 336.37 419.83 298.43 417.12 337 414.42 287.04 411.72 317.4 409.02 285.14 406.32 304.12 403.62 274.39 400.91 286.41 398.21 272.5 395.51 288.31 392.81 275.66 390.11 302.22 387.41 281.98 384.7 290.84 382 277.55 379.3 286.41 376.6 269.97 373.9 278.19 371.2 271.23 368.49 285.14 365.79 270.6 363.09 278.82 360.39 273.13 357.69 275.66 354.99 269.97 352.28 273.76 349.58 269.97 346.41 295.9 343.7 280.72 341 305.38 338.3 273.13 335.6 276.29 332.9 272.5 330.2 279.45 327.49 272.5 324.79 280.72 322.09 272.5 319.39 275.02 316.69 271.86 313.99 281.35 311.28 271.86 308.58 289.57 305.88 271.86 303.18 283.88 300.48 272.5 297.78 289.57 295.07 274.39 292.37 281.98 289.67 276.92 286.97 288.31 284.27 274.39 281.57 298.43 278.86 278.82 276.16 308.54 273.46 283.25 270.76 323.09 268.06 286.41 265.36 325.62 262.66 290.2 259.95 336.37 257.25 302.85 254.55 335.11 251.85 315.5 249.15 337.64 246.45 300.96 243.74 333.84 241.04 295.26 238.34 316.77 235.64 287.04 232.94 306.65 230.24 271.86 227.53 294 224.83 271.86 222.13 279.45 219.43 271.23 216.73 273.76 214.03 271.86 211.32 274.39 208.62 273.13 205.92 279.45 203.22 271.86 200.52 281.35 197.82 271.23 195.11 273.76 192.41 271.86 189.71 281.35 187.01 273.13 184.31 277.55 181.61 274.39 178.9 286.41 176.2 276.29 173.5 306.01 170.8 273.76 168.1 290.2 165.4 273.76 162.69 299.69 159.99 276.29 157.29 320.56 154.59 276.92 151.89 335.11 149.19 288.94 146.49 316.77 143.78 285.14 141.08 307.28 138.38 271.86 135.68 288.94 132.98 271.86 130.28 280.72 127.57 272.5 124.87 287.67 122.17 272.5 119.47 284.51 116.77 271.86 114.07 281.35 111.36 271.86 108.66 299.06 105.96 294.63 103.26 310.44 100.56 283.88 97.86 302.22 95.15 290.2 92.45 295.9 89.75 283.25 87.05 320.56 84.35 290.2 81.65 331.31 78.94 289.57 76.24 336.37 73.54 298.43 70.84 337 68.14 287.04 65.44 317.4 62.73 285.14 60.03 304.12 57.33 274.39 54.63 286.41 51.93 272.5 49.23 288.31 46.52 275.66 43.82 302.22 41.12 281.98 38.42 290.84 35.72 277.55 33.02 286.41 30.32 269.97 27.61 278.19 24.91 271.23 22.21 285.14 19.51 270.6 16.81 278.82 14.11 273.13 11.4 275.66 8.7 269.97 6 273.76 3.3 269.97 6 266.17 8.7 269.97 11.4 264.27 14.11 266.8 16.81 261.11 19.51 269.33 22.21 254.79 24.91 268.7 27.61 261.74 30.32 269.97 33.02 253.52 35.72 262.38 38.42 249.09 41.12 257.95 43.82 237.71 46.52 264.27 49.23 251.62 51.93 267.44 54.63 253.52 57.33 265.54 60.03 235.81 62.73 254.79 65.44 222.53 68.14 252.89 70.84 202.93 73.54 241.51 76.24 203.56 78.94 250.36 81.65 208.62 84.35 249.73 87.05 219.37 89.75 256.68 92.45 244.03 95.15 249.73 97.86 237.71 100.56 256.05 103.26 229.49 105.96 245.3 108.66 240.87 111.36 268.07 114.07 258.58 116.77 268.07 119.47 255.42 122.17 267.44 124.87 252.26 127.57 267.44 130.28 259.21 132.98 268.07 135.68 250.99 138.38 268.07 141.08 232.65 143.78 254.79 146.49 223.16 149.19 250.99 151.89 204.82 154.59 263.01 157.29 219.37 159.99 263.64 162.69 240.24 165.4 266.17 168.1 249.73 170.8 266.17 173.5 233.92 176.2 263.64 178.9 253.52 181.61 265.54 184.31 262.38 187.01 266.8 189.71 258.58 192.41 268.07 195.11 266.17 197.82 268.7 200.52 258.58 203.22 268.07 205.92 260.48 208.62 266.8 211.32 265.54 214.03 268.07 216.73 266.17 219.43 268.7 222.13 260.48 224.83 268.07 227.53 245.93 230.24 268.07 232.94 233.28 235.64 252.89 238.34 223.16 241.04 244.67 243.74 206.09 246.45 238.98 249.15 202.29 251.85 224.43 254.55 204.82 257.25 237.08 259.95 203.56 262.66 249.73 265.36 214.31 268.06 253.52 270.76 216.84 273.46 256.68 276.16 231.39 278.86 261.11 281.57 241.51 284.27 265.54 286.97 251.62 289.67 263.01 292.37 257.95 295.07 265.54 297.78 250.36 300.48 267.44 303.18 256.05 305.88 268.07 308.58 250.36 311.28 268.07 313.99 258.58 316.69 268.07 319.39 264.91 322.09 267.44 324.79 259.21 327.49 267.44 330.2 260.48 332.9 267.44 335.6 263.64 338.3 266.8 341 234.55 343.7 259.21 346.41 244.03 349.58 269.97 352.28 266.17 354.99 269.97 357.69 264.27 360.39 266.8 363.09 261.11 365.79 269.33 368.49 254.79 371.2 268.7 373.9 261.74 376.6 269.97 379.3 253.52 382 262.38 384.7 249.09 387.41 257.95 390.11 237.71 392.81 264.27 395.51 251.62 398.21 267.44 400.91 253.52 403.62 265.54 406.32 235.81 409.02 254.79 411.72 222.53 414.42 252.89 417.12 202.93 419.83 241.51 422.53 203.56 425.23 250.36 427.93 208.62 430.63 249.73 433.33 219.37 436.04 256.68 438.74 244.03 441.44 249.73 444.14 237.71 446.84 256.05 449.54 229.49 452.25 245.3 454.95 240.87 457.65 268.07 460.35 258.58 463.05 268.07 465.75 255.42 468.45 267.44 471.16 252.26 473.86 267.44 476.56 259.21 479.26 268.07 481.96 250.99 484.66 268.07 487.37 232.65 490.07 254.79 492.77 223.16 495.47 250.99 498.17 204.82 500.87 263.01 503.58 219.37 506.28 263.64 508.98 240.24 511.68 266.17 514.38 249.73 517.08 266.17 519.79 233.92 522.49 263.64 525.19 253.52 527.89 265.54 530.59 262.38 533.29 266.8 536 258.58 538.7 268.07 541.4 266.17 544.1 268.7 546.8 258.58 549.5 268.07 552.21 260.48 554.91 266.8 557.61 265.54 560.31 268.07 563.01 266.17 565.71 268.7 568.42 260.48 571.12 268.07 573.82 245.93 576.52 268.07 579.22 233.28 581.92 252.89 584.62 223.16 587.33 244.67 590.03 206.09 592.73 238.98 595.43 202.29 598.13 224.43 600.83 204.82 603.54 237.08 606.24 203.56 608.94 249.73 611.64 214.31 614.34 253.52 617.04 216.84 619.75 256.68 622.45 231.39 625.15 261.11 627.85 241.51 630.55 265.54 633.25 251.62 635.96 263.01 638.66 257.95 641.36 265.54 644.06 250.36 646.76 267.44 649.46 256.05 652.17 268.07 654.87 250.36 657.57 268.07 660.27 258.58 662.97 268.07 665.67 264.91 668.38 267.44 671.08 259.21 673.78 267.44 676.48 260.48 679.18 267.44 681.88 263.64 684.59 266.8 687.29 234.55 689.99 259.21 692.69 244.03 695.39 269.97"/>
          </g>
          <g class="cls-4">
            <polygon class="cls-7" points="695.39 269.97 692.69 283.01 689.99 275.38 687.29 287.79 684.59 271.56 681.88 273.15 679.18 271.24 676.48 274.74 673.78 271.24 671.08 275.38 668.38 271.24 665.67 272.51 662.97 270.92 660.27 275.69 657.57 270.92 654.87 279.83 652.17 270.92 649.46 276.97 646.76 271.24 644.06 279.83 641.36 272.19 638.66 276.01 635.96 273.47 633.25 279.2 630.55 272.19 627.85 284.29 625.15 274.42 622.45 289.38 619.75 276.65 617.04 296.7 614.34 278.24 611.64 297.97 608.94 280.15 606.24 303.38 603.54 286.52 600.83 302.75 598.13 292.88 595.43 304.02 592.73 285.56 590.03 302.11 587.33 282.7 584.62 293.52 581.92 278.56 579.22 288.43 576.52 270.92 573.82 282.06 571.12 270.92 568.42 274.74 565.71 270.6 563.01 271.87 560.31 270.92 557.61 272.19 554.91 271.56 552.21 274.74 549.5 270.92 546.8 275.69 544.1 270.6 541.4 271.87 538.7 270.92 536 275.69 533.29 271.56 530.59 273.78 527.89 272.19 525.19 278.24 522.49 273.15 519.79 288.11 517.08 271.87 514.38 280.15 511.68 271.87 508.98 284.92 506.28 273.15 503.58 295.43 500.87 273.47 498.17 302.75 495.47 279.51 492.77 293.52 490.07 277.6 487.37 288.74 484.66 270.92 481.96 279.51 479.26 270.92 476.56 275.38 473.86 271.24 471.16 278.88 468.45 271.24 465.75 277.29 463.05 270.92 460.35 275.69 457.65 270.92 454.95 284.61 452.25 282.38 449.54 290.33 446.84 276.97 444.14 286.2 441.44 280.15 438.74 283.01 436.04 276.65 433.33 295.43 430.63 280.15 427.93 300.84 425.23 279.83 422.53 303.38 419.83 284.29 417.12 303.7 414.42 278.56 411.72 293.84 409.02 277.6 406.32 287.15 403.62 272.19 400.91 278.24 398.21 271.24 395.51 279.2 392.81 272.83 390.11 286.2 387.41 276.01 384.7 280.47 382 273.78 379.3 278.24 376.6 269.97 373.9 274.1 371.2 270.6 368.49 277.6 365.79 270.28 363.09 274.42 360.39 271.56 357.69 272.83 354.99 269.97 352.28 271.87 349.58 269.97 346.41 283.01 343.7 275.38 341 287.79 338.3 271.56 335.6 273.15 332.9 271.24 330.2 274.74 327.49 271.24 324.79 275.38 322.09 271.24 319.39 272.51 316.69 270.92 313.99 275.69 311.28 270.92 308.58 279.83 305.88 270.92 303.18 276.97 300.48 271.24 297.78 279.83 295.07 272.19 292.37 276.01 289.67 273.47 286.97 279.2 284.27 272.19 281.57 284.29 278.86 274.42 276.16 289.38 273.46 276.65 270.76 296.7 268.06 278.24 265.36 297.97 262.66 280.15 259.95 303.38 257.25 286.52 254.55 302.75 251.85 292.88 249.15 304.02 246.45 285.56 243.74 302.11 241.04 282.7 238.34 293.52 235.64 278.56 232.94 288.43 230.24 270.92 227.53 282.06 224.83 270.92 222.13 274.74 219.43 270.6 216.73 271.87 214.03 270.92 211.32 272.19 208.62 271.56 205.92 274.74 203.22 270.92 200.52 275.69 197.82 270.6 195.11 271.87 192.41 270.92 189.71 275.69 187.01 271.56 184.31 273.78 181.61 272.19 178.9 278.24 176.2 273.15 173.5 288.11 170.8 271.87 168.1 280.15 165.4 271.87 162.69 284.92 159.99 273.15 157.29 295.43 154.59 273.47 151.89 302.75 149.19 279.51 146.49 293.52 143.78 277.6 141.08 288.74 138.38 270.92 135.68 279.51 132.98 270.92 130.28 275.38 127.57 271.24 124.87 278.88 122.17 271.24 119.47 277.29 116.77 270.92 114.07 275.69 111.36 270.92 108.66 284.61 105.96 282.38 103.26 290.33 100.56 276.97 97.86 286.2 95.15 280.15 92.45 283.01 89.75 276.65 87.05 295.43 84.35 280.15 81.65 300.84 78.94 279.83 76.24 303.38 73.54 284.29 70.84 303.7 68.14 278.56 65.44 293.84 62.73 277.6 60.03 287.15 57.33 272.19 54.63 278.24 51.93 271.24 49.23 279.2 46.52 272.83 43.82 286.2 41.12 276.01 38.42 280.47 35.72 273.78 33.02 278.24 30.32 269.97 27.61 274.1 24.91 270.6 22.21 277.6 19.51 270.28 16.81 274.42 14.11 271.56 11.4 272.83 8.7 269.97 6 271.87 3.3 269.97 6 268.06 8.7 269.97 11.4 267.1 14.11 268.37 16.81 265.51 19.51 269.65 22.21 262.33 24.91 269.33 27.61 265.83 30.32 269.97 33.02 261.69 35.72 266.15 38.42 259.46 41.12 263.92 43.82 253.73 46.52 267.1 49.23 260.74 51.93 268.69 54.63 261.69 57.33 267.74 60.03 252.78 62.73 262.33 65.44 246.09 68.14 261.37 70.84 236.23 73.54 255.64 76.24 236.55 78.94 260.1 81.65 239.09 84.35 259.78 87.05 244.5 89.75 263.28 92.45 256.92 95.15 259.78 97.86 253.73 100.56 262.96 103.26 249.6 105.96 257.55 108.66 255.32 111.36 269.01 114.07 264.24 116.77 269.01 119.47 262.64 122.17 268.69 124.87 261.05 127.57 268.69 130.28 264.55 132.98 269.01 135.68 260.42 138.38 269.01 141.08 251.19 143.78 262.33 146.49 246.41 149.19 260.42 151.89 237.18 154.59 266.46 157.29 244.5 159.99 266.78 162.69 255.01 165.4 268.06 168.1 259.78 170.8 268.06 173.5 251.82 176.2 266.78 178.9 261.69 181.61 267.74 184.31 266.15 187.01 268.37 189.71 264.24 192.41 269.01 195.11 268.06 197.82 269.33 200.52 264.24 203.22 269.01 205.92 265.19 208.62 268.37 211.32 267.74 214.03 269.01 216.73 268.06 219.43 269.33 222.13 265.19 224.83 269.01 227.53 257.87 230.24 269.01 232.94 251.51 235.64 261.37 238.34 246.41 241.04 257.23 243.74 237.82 246.45 254.37 249.15 235.91 251.85 247.05 254.55 237.18 257.25 253.41 259.95 236.55 262.66 259.78 265.36 241.96 268.06 261.69 270.76 243.23 273.46 263.28 276.16 250.55 278.86 265.51 281.57 255.64 284.27 267.74 286.97 260.74 289.67 266.46 292.37 263.92 295.07 267.74 297.78 260.1 300.48 268.69 303.18 262.96 305.88 269.01 308.58 260.1 311.28 269.01 313.99 264.24 316.69 269.01 319.39 267.42 322.09 268.69 324.79 264.55 327.49 268.69 330.2 265.19 332.9 268.69 335.6 266.78 338.3 268.37 341 252.14 343.7 264.55 346.41 256.92 349.58 269.97 352.28 268.06 354.99 269.97 357.69 267.1 360.39 268.37 363.09 265.51 365.79 269.65 368.49 262.33 371.2 269.33 373.9 265.83 376.6 269.97 379.3 261.69 382 266.15 384.7 259.46 387.41 263.92 390.11 253.73 392.81 267.1 395.51 260.74 398.21 268.69 400.91 261.69 403.62 267.74 406.32 252.78 409.02 262.33 411.72 246.09 414.42 261.37 417.12 236.23 419.83 255.64 422.53 236.55 425.23 260.1 427.93 239.09 430.63 259.78 433.33 244.5 436.04 263.28 438.74 256.92 441.44 259.78 444.14 253.73 446.84 262.96 449.54 249.6 452.25 257.55 454.95 255.32 457.65 269.01 460.35 264.24 463.05 269.01 465.75 262.64 468.45 268.69 471.16 261.05 473.86 268.69 476.56 264.55 479.26 269.01 481.96 260.42 484.66 269.01 487.37 251.19 490.07 262.33 492.77 246.41 495.47 260.42 498.17 237.18 500.87 266.46 503.58 244.5 506.28 266.78 508.98 255.01 511.68 268.06 514.38 259.78 517.08 268.06 519.79 251.82 522.49 266.78 525.19 261.69 527.89 267.74 530.59 266.15 533.29 268.37 536 264.24 538.7 269.01 541.4 268.06 544.1 269.33 546.8 264.24 549.5 269.01 552.21 265.19 554.91 268.37 557.61 267.74 560.31 269.01 563.01 268.06 565.71 269.33 568.42 265.19 571.12 269.01 573.82 257.87 576.52 269.01 579.22 251.51 581.92 261.37 584.62 246.41 587.33 257.23 590.03 237.82 592.73 254.37 595.43 235.91 598.13 247.05 600.83 237.18 603.54 253.41 606.24 236.55 608.94 259.78 611.64 241.96 614.34 261.69 617.04 243.23 619.75 263.28 622.45 250.55 625.15 265.51 627.85 255.64 630.55 267.74 633.25 260.74 635.96 266.46 638.66 263.92 641.36 267.74 644.06 260.1 646.76 268.69 649.46 262.96 652.17 269.01 654.87 260.1 657.57 269.01 660.27 264.24 662.97 269.01 665.67 267.42 668.38 268.69 671.08 264.55 673.78 268.69 676.48 265.19 679.18 268.69 681.88 266.78 684.59 268.37 687.29 252.14 689.99 264.55 692.69 256.92 695.39 269.97"/>
          </g>
          <g class="cls-4">
            <polygon class="cls-9" points="695.39 269.97 692.69 273.11 689.99 271.27 687.29 274.26 684.59 270.35 681.88 270.73 679.18 270.27 676.48 271.11 673.78 270.27 671.08 271.27 668.38 270.27 665.67 270.58 662.97 270.2 660.27 271.34 657.57 270.2 654.87 272.34 652.17 270.2 649.46 271.65 646.76 270.27 644.06 272.34 641.36 270.5 638.66 271.42 635.96 270.81 633.25 272.19 630.55 270.5 627.85 273.41 625.15 271.04 622.45 274.64 619.75 271.57 617.04 276.4 614.34 271.96 611.64 276.71 608.94 272.42 606.24 278.01 603.54 273.95 600.83 277.86 598.13 275.48 595.43 278.16 592.73 273.72 590.03 277.7 587.33 273.03 584.62 275.63 581.92 272.03 579.22 274.41 576.52 270.2 573.82 272.88 571.12 270.2 568.42 271.11 565.71 270.12 563.01 270.42 560.31 270.2 557.61 270.5 554.91 270.35 552.21 271.11 549.5 270.2 546.8 271.34 544.1 270.12 541.4 270.42 538.7 270.2 536 271.34 533.29 270.35 530.59 270.88 527.89 270.5 525.19 271.96 522.49 270.73 519.79 274.33 517.08 270.42 514.38 272.42 511.68 270.42 508.98 273.57 506.28 270.73 503.58 276.09 500.87 270.81 498.17 277.86 495.47 272.26 492.77 275.63 490.07 271.8 487.37 274.49 484.66 270.2 481.96 272.26 479.26 270.2 476.56 271.27 473.86 270.27 471.16 272.11 468.45 270.27 465.75 271.73 463.05 270.2 460.35 271.34 457.65 270.2 454.95 273.49 452.25 272.95 449.54 274.87 446.84 271.65 444.14 273.87 441.44 272.42 438.74 273.11 436.04 271.57 433.33 276.09 430.63 272.42 427.93 277.4 425.23 272.34 422.53 278.01 419.83 273.41 417.12 278.09 414.42 272.03 411.72 275.71 409.02 271.8 406.32 274.1 403.62 270.5 400.91 271.96 398.21 270.27 395.51 272.19 392.81 270.65 390.11 273.87 387.41 271.42 384.7 272.49 382 270.88 379.3 271.96 376.6 269.97 373.9 270.96 371.2 270.12 368.49 271.8 365.79 270.04 363.09 271.04 360.39 270.35 357.69 270.65 354.99 269.97 352.28 270.42 349.58 269.97 346.41 273.11 343.7 271.27 341 274.26 338.3 270.35 335.6 270.73 332.9 270.27 330.2 271.11 327.49 270.27 324.79 271.27 322.09 270.27 319.39 270.58 316.69 270.2 313.99 271.34 311.28 270.2 308.58 272.34 305.88 270.2 303.18 271.65 300.48 270.27 297.78 272.34 295.07 270.5 292.37 271.42 289.67 270.81 286.97 272.19 284.27 270.5 281.57 273.41 278.86 271.04 276.16 274.64 273.46 271.57 270.76 276.4 268.06 271.96 265.36 276.71 262.66 272.42 259.95 278.01 257.25 273.95 254.55 277.86 251.85 275.48 249.15 278.16 246.45 273.72 243.74 277.7 241.04 273.03 238.34 275.63 235.64 272.03 232.94 274.41 230.24 270.2 227.53 272.88 224.83 270.2 222.13 271.11 219.43 270.12 216.73 270.42 214.03 270.2 211.32 270.5 208.62 270.35 205.92 271.11 203.22 270.2 200.52 271.34 197.82 270.12 195.11 270.42 192.41 270.2 189.71 271.34 187.01 270.35 184.31 270.88 181.61 270.5 178.9 271.96 176.2 270.73 173.5 274.33 170.8 270.42 168.1 272.42 165.4 270.42 162.69 273.57 159.99 270.73 157.29 276.09 154.59 270.81 151.89 277.86 149.19 272.26 146.49 275.63 143.78 271.8 141.08 274.49 138.38 270.2 135.68 272.26 132.98 270.2 130.28 271.27 127.57 270.27 124.87 272.11 122.17 270.27 119.47 271.73 116.77 270.2 114.07 271.34 111.36 270.2 108.66 273.49 105.96 272.95 103.26 274.87 100.56 271.65 97.86 273.87 95.15 272.42 92.45 273.11 89.75 271.57 87.05 276.09 84.35 272.42 81.65 277.4 78.94 272.34 76.24 278.01 73.54 273.41 70.84 278.09 68.14 272.03 65.44 275.71 62.73 271.8 60.03 274.1 57.33 270.5 54.63 271.96 51.93 270.27 49.23 272.19 46.52 270.65 43.82 273.87 41.12 271.42 38.42 272.49 35.72 270.88 33.02 271.96 30.32 269.97 27.61 270.96 24.91 270.12 22.21 271.8 19.51 270.04 16.81 271.04 14.11 270.35 11.4 270.65 8.7 269.97 6 270.42 3.3 269.97 6 269.51 8.7 269.97 11.4 269.28 14.11 269.58 16.81 268.89 19.51 269.89 22.21 268.13 24.91 269.81 27.61 268.97 30.32 269.97 33.02 267.97 35.72 269.05 38.42 267.44 41.12 268.51 43.82 266.06 46.52 269.28 49.23 267.74 51.93 269.66 54.63 267.97 57.33 269.43 60.03 265.83 62.73 268.13 65.44 264.22 68.14 267.9 70.84 261.84 73.54 266.52 76.24 261.92 78.94 267.59 81.65 262.53 84.35 267.51 87.05 263.84 89.75 268.36 92.45 266.82 95.15 267.51 97.86 266.06 100.56 268.28 103.26 265.06 105.96 266.98 108.66 266.44 111.36 269.74 114.07 268.59 116.77 269.74 119.47 268.2 122.17 269.66 124.87 267.82 127.57 269.66 130.28 268.66 132.98 269.74 135.68 267.67 138.38 269.74 141.08 265.45 143.78 268.13 146.49 264.3 149.19 267.67 151.89 262.07 154.59 269.12 157.29 263.84 159.99 269.2 162.69 266.36 165.4 269.51 168.1 267.51 170.8 269.51 173.5 265.6 176.2 269.2 178.9 267.97 181.61 269.43 184.31 269.05 187.01 269.58 189.71 268.59 192.41 269.74 195.11 269.51 197.82 269.81 200.52 268.59 203.22 269.74 205.92 268.82 208.62 269.58 211.32 269.43 214.03 269.74 216.73 269.51 219.43 269.81 222.13 268.82 224.83 269.74 227.53 267.05 230.24 269.74 232.94 265.52 235.64 267.9 238.34 264.3 241.04 266.9 243.74 262.23 246.45 266.21 249.15 261.77 251.85 264.45 254.55 262.07 257.25 265.98 259.95 261.92 262.66 267.51 265.36 263.22 268.06 267.97 270.76 263.53 273.46 268.36 276.16 265.29 278.86 268.89 281.57 266.52 284.27 269.43 286.97 267.74 289.67 269.12 292.37 268.51 295.07 269.43 297.78 267.59 300.48 269.66 303.18 268.28 305.88 269.74 308.58 267.59 311.28 269.74 313.99 268.59 316.69 269.74 319.39 269.35 322.09 269.66 324.79 268.66 327.49 269.66 330.2 268.82 332.9 269.66 335.6 269.2 338.3 269.58 341 265.68 343.7 268.66 346.41 266.82 349.58 269.97 352.28 269.51 354.99 269.97 357.69 269.28 360.39 269.58 363.09 268.89 365.79 269.89 368.49 268.13 371.2 269.81 373.9 268.97 376.6 269.97 379.3 267.97 382 269.05 384.7 267.44 387.41 268.51 390.11 266.06 392.81 269.28 395.51 267.74 398.21 269.66 400.91 267.97 403.62 269.43 406.32 265.83 409.02 268.13 411.72 264.22 414.42 267.9 417.12 261.84 419.83 266.52 422.53 261.92 425.23 267.59 427.93 262.53 430.63 267.51 433.33 263.84 436.04 268.36 438.74 266.82 441.44 267.51 444.14 266.06 446.84 268.28 449.54 265.06 452.25 266.98 454.95 266.44 457.65 269.74 460.35 268.59 463.05 269.74 465.75 268.2 468.45 269.66 471.16 267.82 473.86 269.66 476.56 268.66 479.26 269.74 481.96 267.67 484.66 269.74 487.37 265.45 490.07 268.13 492.77 264.3 495.47 267.67 498.17 262.07 500.87 269.12 503.58 263.84 506.28 269.2 508.98 266.36 511.68 269.51 514.38 267.51 517.08 269.51 519.79 265.6 522.49 269.2 525.19 267.97 527.89 269.43 530.59 269.05 533.29 269.58 536 268.59 538.7 269.74 541.4 269.51 544.1 269.81 546.8 268.59 549.5 269.74 552.21 268.82 554.91 269.58 557.61 269.43 560.31 269.74 563.01 269.51 565.71 269.81 568.42 268.82 571.12 269.74 573.82 267.05 576.52 269.74 579.22 265.52 581.92 267.9 584.62 264.3 587.33 266.9 590.03 262.23 592.73 266.21 595.43 261.77 598.13 264.45 600.83 262.07 603.54 265.98 606.24 261.92 608.94 267.51 611.64 263.22 614.34 267.97 617.04 263.53 619.75 268.36 622.45 265.29 625.15 268.89 627.85 266.52 630.55 269.43 633.25 267.74 635.96 269.12 638.66 268.51 641.36 269.43 644.06 267.59 646.76 269.66 649.46 268.28 652.17 269.74 654.87 267.59 657.57 269.74 660.27 268.59 662.97 269.74 665.67 269.35 668.38 269.66 671.08 268.66 673.78 269.66 676.48 268.82 679.18 269.66 681.88 269.2 684.59 269.58 687.29 265.68 689.99 268.66 692.69 266.82 695.39 269.97"/>
          </g>
          <g>
            <path class="cls-2" d="m-21.42,269.97c237.54-.79,503.99-.8,741.53,0-237.54.8-503.99.79-741.53,0h0Z"/>
            <path class="cls-2" d="m3.3,269.97c221.7-.79,470.39-.8,692.09,0-221.7.8-470.39.79-692.09,0h0Z"/>
          </g>
        </g>
      </g>
    </g>
  </g>
</svg>