<?xml version="1.0" encoding="UTF-8" ?>
<svg
  xmlns="http://www.w3.org/2000/svg"
  xmlns:xlink="http://www.w3.org/1999/xlink"
  viewBox="0 0 700 370"
>
  <defs>
    <style>
      .cls-1 {
        fill: url(#linear-gradient-2);
      }

      .cls-2 {
        fill: #fff;
      }

      .cls-3 {
        isolation: isolate;
      }

      .cls-4 {
        mix-blend-mode: color-dodge;
        opacity: .4;
      }

      .cls-5 {
        clip-path: url(#clippath);
      }

      .cls-6 {
        fill: none;
      }

      .cls-7 {
        fill: url(#linear-gradient-3);
      }

      .cls-8 {
        fill: url(#linear-gradient);
      }

      .cls-9 {
        fill: url(#linear-gradient-4);
      }
    </style>
    <clipPath id="clippath">
      <rect class="cls-6" y="35" width="700" height="70" />
    </clipPath>
    <linearGradient
      id="linear-gradient"
      x1="73.18"
      y1="221.34"
      x2="609.68"
      y2="340.94"
      gradientUnits="userSpaceOnUse"
    >
      <stop offset=".25" stop-color="#70f2a4" />
      <stop offset=".25" stop-color="#6ff1a4" />
      <stop offset=".65" stop-color="#56bdda" />
      <stop offset=".85" stop-color="#4ca9f0" />
    </linearGradient>
    <linearGradient
      id="linear-gradient-2"
      x1="25.42"
      y1="237.68"
      x2="711.43"
      y2="331.01"
      gradientUnits="userSpaceOnUse"
    >
      <stop offset=".12" stop-color="#70f2a4" />
      <stop offset=".85" stop-color="#4ca9f0" />
    </linearGradient>
    <linearGradient
      id="linear-gradient-3"
      x1="3.3"
      y1="279.97"
      x2="695.39"
      y2="279.97"
      gradientUnits="userSpaceOnUse"
    >
      <stop offset="0" stop-color="#70f2a4" stop-opacity=".5" />
      <stop offset="1" stop-color="#4ca9f0" stop-opacity=".5" />
    </linearGradient>
    <linearGradient
      id="linear-gradient-4"
      x1="3.3"
      y1="279.97"
      x2="695.39"
      y2="279.97"
      gradientUnits="userSpaceOnUse"
    >
      <stop offset="0" stop-color="#70f2a4" stop-opacity=".5" />
      <stop offset="1" stop-color="#4ca9f0" stop-opacity=".5" />
    </linearGradient>
  </defs>
  <g class="cls-3">
    <g id="_750_x_500_px" data-name="750 x 500 px">
      <g class="cls-5">
        <g>
          <g class="cls-4">
            <polygon
              class="cls-8"
              points="695.39 279.97 692.69 323.4 689.99 297.97 687.29 339.29 684.59 285.26 681.88 290.56 679.18 284.2 676.48 295.86 673.78 284.2 671.08 297.97 668.38 284.2 665.67 288.44 662.97 283.14 660.27 299.03 657.57 283.14 654.87 312.81 652.17 283.14 649.46 303.27 646.76 284.2 644.06 312.81 641.36 287.38 638.66 300.09 635.96 291.62 633.25 310.69 630.55 287.38 627.85 327.64 625.15 294.8 622.45 344.59 619.75 302.21 617.04 368.95 614.34 307.51 611.64 373.19 608.94 313.87 606.24 391.2 603.54 335.05 600.83 389.08 598.13 356.24 595.43 393.32 592.73 331.88 590.03 386.96 587.33 322.34 584.62 358.36 581.92 308.57 579.22 341.41 576.52 283.14 573.82 320.22 571.12 283.14 568.42 295.86 565.71 282.08 563.01 286.32 560.31 283.14 557.61 287.38 554.91 285.26 552.21 295.86 549.5 283.14 546.8 299.03 544.1 282.08 541.4 286.32 538.7 283.14 536 299.03 533.29 285.26 530.59 292.68 527.89 287.38 525.19 307.51 522.49 290.56 519.79 340.35 517.08 286.32 514.38 313.87 511.68 286.32 508.98 329.76 506.28 290.56 503.58 364.72 500.87 291.62 498.17 389.08 495.47 311.75 492.77 358.36 490.07 305.39 487.37 342.47 484.66 283.14 481.96 311.75 479.26 283.14 476.56 297.97 473.86 284.2 471.16 309.63 468.45 284.2 465.75 304.33 463.05 283.14 460.35 299.03 457.65 283.14 454.95 328.7 452.25 321.28 449.54 347.77 446.84 303.27 444.14 333.99 441.44 313.87 438.74 323.4 436.04 302.21 433.33 364.72 430.63 313.87 427.93 382.73 425.23 312.81 422.53 391.2 419.83 327.64 417.12 392.26 414.42 308.57 411.72 359.42 409.02 305.39 406.32 337.17 403.62 287.38 400.91 307.51 398.21 284.2 395.51 310.69 392.81 289.5 390.11 333.99 387.41 300.09 384.7 314.93 382 292.68 379.3 307.51 376.6 279.97 373.9 293.74 371.2 282.08 368.49 305.39 365.79 281.02 363.09 294.8 360.39 285.26 357.69 289.5 354.99 279.97 352.28 286.32 349.58 279.97 346.41 323.4 343.7 297.97 341 339.29 338.3 285.26 335.6 290.56 332.9 284.2 330.2 295.86 327.49 284.2 324.79 297.97 322.09 284.2 319.39 288.44 316.69 283.14 313.99 299.03 311.28 283.14 308.58 312.81 305.88 283.14 303.18 303.27 300.48 284.2 297.78 312.81 295.07 287.38 292.37 300.09 289.67 291.62 286.97 310.69 284.27 287.38 281.57 327.64 278.86 294.8 276.16 344.59 273.46 302.21 270.76 368.95 268.06 307.51 265.36 373.19 262.66 313.87 259.95 391.2 257.25 335.05 254.55 389.08 251.85 356.24 249.15 393.32 246.45 331.88 243.74 386.96 241.04 322.34 238.34 358.36 235.64 308.57 232.94 341.41 230.24 283.14 227.53 320.22 224.83 283.14 222.13 295.86 219.43 282.08 216.73 286.32 214.03 283.14 211.32 287.38 208.62 285.26 205.92 295.86 203.22 283.14 200.52 299.03 197.82 282.08 195.11 286.32 192.41 283.14 189.71 299.03 187.01 285.26 184.31 292.68 181.61 287.38 178.9 307.51 176.2 290.56 173.5 340.35 170.8 286.32 168.1 313.87 165.4 286.32 162.69 329.76 159.99 290.56 157.29 364.72 154.59 291.62 151.89 389.08 149.19 311.75 146.49 358.36 143.78 305.39 141.08 342.47 138.38 283.14 135.68 311.75 132.98 283.14 130.28 297.97 127.57 284.2 124.87 309.63 122.17 284.2 119.47 304.33 116.77 283.14 114.07 299.03 111.36 283.14 108.66 328.7 105.96 321.28 103.26 347.77 100.56 303.27 97.86 333.99 95.15 313.87 92.45 323.4 89.75 302.21 87.05 364.72 84.35 313.87 81.65 382.73 78.94 312.81 76.24 391.2 73.54 327.64 70.84 392.26 68.14 308.57 65.44 359.42 62.73 305.39 60.03 337.17 57.33 287.38 54.63 307.51 51.93 284.2 49.23 310.69 46.52 289.5 43.82 333.99 41.12 300.09 38.42 314.93 35.72 292.68 33.02 307.51 30.32 279.97 27.61 293.74 24.91 282.08 22.21 305.39 19.51 281.02 16.81 294.8 14.11 285.26 11.4 289.5 8.7 279.97 6 286.32 3.3 279.97 6 273.61 8.7 279.97 11.4 270.43 14.11 274.67 16.81 265.13 19.51 278.91 22.21 254.54 24.91 277.85 27.61 266.19 30.32 279.97 33.02 252.42 35.72 267.25 38.42 245.01 41.12 259.84 43.82 225.94 46.52 270.43 49.23 249.24 51.93 275.73 54.63 252.42 57.33 272.55 60.03 222.76 62.73 254.54 65.44 200.51 68.14 251.36 70.84 167.67 73.54 232.29 76.24 168.73 78.94 247.12 81.65 177.2 84.35 246.06 87.05 195.21 89.75 257.72 92.45 236.53 95.15 246.06 97.86 225.94 100.56 256.66 103.26 212.16 105.96 238.65 108.66 231.23 111.36 276.79 114.07 260.9 116.77 276.79 119.47 255.6 122.17 275.73 124.87 250.3 127.57 275.73 130.28 261.96 132.98 276.79 135.68 248.18 138.38 276.79 141.08 217.46 143.78 254.54 146.49 201.57 149.19 248.18 151.89 170.85 154.59 268.31 157.29 195.21 159.99 269.37 162.69 230.17 165.4 273.61 168.1 246.06 170.8 273.61 173.5 219.58 176.2 269.37 178.9 252.42 181.61 272.55 184.31 267.25 187.01 274.67 189.71 260.9 192.41 276.79 195.11 273.61 197.82 277.85 200.52 260.9 203.22 276.79 205.92 264.07 208.62 274.67 211.32 272.55 214.03 276.79 216.73 273.61 219.43 277.85 222.13 264.07 224.83 276.79 227.53 239.71 230.24 276.79 232.94 218.52 235.64 251.36 238.34 201.57 241.04 237.59 243.74 172.97 246.45 228.06 249.15 166.61 251.85 203.69 254.55 170.85 257.25 224.88 259.95 168.73 262.66 246.06 265.36 186.74 268.06 252.42 270.76 190.98 273.46 257.72 276.16 215.34 278.86 265.13 281.57 232.29 284.27 272.55 286.97 249.24 289.67 268.31 292.37 259.84 295.07 272.55 297.78 247.12 300.48 275.73 303.18 256.66 305.88 276.79 308.58 247.12 311.28 276.79 313.99 260.9 316.69 276.79 319.39 271.49 322.09 275.73 324.79 261.96 327.49 275.73 330.2 264.07 332.9 275.73 335.6 269.37 338.3 274.67 341 220.64 343.7 261.96 346.41 236.53 349.58 279.97 352.28 273.61 354.99 279.97 357.69 270.43 360.39 274.67 363.09 265.13 365.79 278.91 368.49 254.54 371.2 277.85 373.9 266.19 376.6 279.97 379.3 252.42 382 267.25 384.7 245.01 387.41 259.84 390.11 225.94 392.81 270.43 395.51 249.24 398.21 275.73 400.91 252.42 403.62 272.55 406.32 222.76 409.02 254.54 411.72 200.51 414.42 251.36 417.12 167.67 419.83 232.29 422.53 168.73 425.23 247.12 427.93 177.2 430.63 246.06 433.33 195.21 436.04 257.72 438.74 236.53 441.44 246.06 444.14 225.94 446.84 256.66 449.54 212.16 452.25 238.65 454.95 231.23 457.65 276.79 460.35 260.9 463.05 276.79 465.75 255.6 468.45 275.73 471.16 250.3 473.86 275.73 476.56 261.96 479.26 276.79 481.96 248.18 484.66 276.79 487.37 217.46 490.07 254.54 492.77 201.57 495.47 248.18 498.17 170.85 500.87 268.31 503.58 195.21 506.28 269.37 508.98 230.17 511.68 273.61 514.38 246.06 517.08 273.61 519.79 219.58 522.49 269.37 525.19 252.42 527.89 272.55 530.59 267.25 533.29 274.67 536 260.9 538.7 276.79 541.4 273.61 544.1 277.85 546.8 260.9 549.5 276.79 552.21 264.07 554.91 274.67 557.61 272.55 560.31 276.79 563.01 273.61 565.71 277.85 568.42 264.07 571.12 276.79 573.82 239.71 576.52 276.79 579.22 218.52 581.92 251.36 584.62 201.57 587.33 237.59 590.03 172.97 592.73 228.06 595.43 166.61 598.13 203.69 600.83 170.85 603.54 224.88 606.24 168.73 608.94 246.06 611.64 186.74 614.34 252.42 617.04 190.98 619.75 257.72 622.45 215.34 625.15 265.13 627.85 232.29 630.55 272.55 633.25 249.24 635.96 268.31 638.66 259.84 641.36 272.55 644.06 247.12 646.76 275.73 649.46 256.66 652.17 276.79 654.87 247.12 657.57 276.79 660.27 260.9 662.97 276.79 665.67 271.49 668.38 275.73 671.08 261.96 673.78 275.73 676.48 264.07 679.18 275.73 681.88 269.37 684.59 274.67 687.29 220.64 689.99 261.96 692.69 236.53 695.39 279.97"
            />
          </g>
          <g class="cls-4">
            <polygon
              class="cls-1"
              points="695.39 279.97 692.69 305.9 689.99 290.72 687.29 315.38 684.59 283.13 681.88 286.29 679.18 282.5 676.48 289.45 673.78 282.5 671.08 290.72 668.38 282.5 665.67 285.02 662.97 281.86 660.27 291.35 657.57 281.86 654.87 299.57 652.17 281.86 649.46 293.88 646.76 282.5 644.06 299.57 641.36 284.39 638.66 291.98 635.96 286.92 633.25 298.31 630.55 284.39 627.85 308.43 625.15 288.82 622.45 318.54 619.75 293.25 617.04 333.09 614.34 296.41 611.64 335.62 608.94 300.2 606.24 346.37 603.54 312.85 600.83 345.11 598.13 325.5 595.43 347.64 592.73 310.96 590.03 343.84 587.33 305.26 584.62 326.77 581.92 297.04 579.22 316.65 576.52 281.86 573.82 304 571.12 281.86 568.42 289.45 565.71 281.23 563.01 283.76 560.31 281.86 557.61 284.39 554.91 283.13 552.21 289.45 549.5 281.86 546.8 291.35 544.1 281.23 541.4 283.76 538.7 281.86 536 291.35 533.29 283.13 530.59 287.55 527.89 284.39 525.19 296.41 522.49 286.29 519.79 316.01 517.08 283.76 514.38 300.2 511.68 283.76 508.98 309.69 506.28 286.29 503.58 330.56 500.87 286.92 498.17 345.11 495.47 298.94 492.77 326.77 490.07 295.14 487.37 317.28 484.66 281.86 481.96 298.94 479.26 281.86 476.56 290.72 473.86 282.5 471.16 297.67 468.45 282.5 465.75 294.51 463.05 281.86 460.35 291.35 457.65 281.86 454.95 309.06 452.25 304.63 449.54 320.44 446.84 293.88 444.14 312.22 441.44 300.2 438.74 305.9 436.04 293.25 433.33 330.56 430.63 300.2 427.93 341.31 425.23 299.57 422.53 346.37 419.83 308.43 417.12 347 414.42 297.04 411.72 327.4 409.02 295.14 406.32 314.12 403.62 284.39 400.91 296.41 398.21 282.5 395.51 298.31 392.81 285.66 390.11 312.22 387.41 291.98 384.7 300.84 382 287.55 379.3 296.41 376.6 279.97 373.9 288.19 371.2 281.23 368.49 295.14 365.79 280.6 363.09 288.82 360.39 283.13 357.69 285.66 354.99 279.97 352.28 283.76 349.58 279.97 346.41 305.9 343.7 290.72 341 315.38 338.3 283.13 335.6 286.29 332.9 282.5 330.2 289.45 327.49 282.5 324.79 290.72 322.09 282.5 319.39 285.02 316.69 281.86 313.99 291.35 311.28 281.86 308.58 299.57 305.88 281.86 303.18 293.88 300.48 282.5 297.78 299.57 295.07 284.39 292.37 291.98 289.67 286.92 286.97 298.31 284.27 284.39 281.57 308.43 278.86 288.82 276.16 318.54 273.46 293.25 270.76 333.09 268.06 296.41 265.36 335.62 262.66 300.2 259.95 346.37 257.25 312.85 254.55 345.11 251.85 325.5 249.15 347.64 246.45 310.96 243.74 343.84 241.04 305.26 238.34 326.77 235.64 297.04 232.94 316.65 230.24 281.86 227.53 304 224.83 281.86 222.13 289.45 219.43 281.23 216.73 283.76 214.03 281.86 211.32 284.39 208.62 283.13 205.92 289.45 203.22 281.86 200.52 291.35 197.82 281.23 195.11 283.76 192.41 281.86 189.71 291.35 187.01 283.13 184.31 287.55 181.61 284.39 178.9 296.41 176.2 286.29 173.5 316.01 170.8 283.76 168.1 300.2 165.4 283.76 162.69 309.69 159.99 286.29 157.29 330.56 154.59 286.92 151.89 345.11 149.19 298.94 146.49 326.77 143.78 295.14 141.08 317.28 138.38 281.86 135.68 298.94 132.98 281.86 130.28 290.72 127.57 282.5 124.87 297.67 122.17 282.5 119.47 294.51 116.77 281.86 114.07 291.35 111.36 281.86 108.66 309.06 105.96 304.63 103.26 320.44 100.56 293.88 97.86 312.22 95.15 300.2 92.45 305.9 89.75 293.25 87.05 330.56 84.35 300.2 81.65 341.31 78.94 299.57 76.24 346.37 73.54 308.43 70.84 347 68.14 297.04 65.44 327.4 62.73 295.14 60.03 314.12 57.33 284.39 54.63 296.41 51.93 282.5 49.23 298.31 46.52 285.66 43.82 312.22 41.12 291.98 38.42 300.84 35.72 287.55 33.02 296.41 30.32 279.97 27.61 288.19 24.91 281.23 22.21 295.14 19.51 280.6 16.81 288.82 14.11 283.13 11.4 285.66 8.7 279.97 6 283.76 3.3 279.97 6 276.17 8.7 279.97 11.4 274.27 14.11 276.8 16.81 271.11 19.51 279.33 22.21 264.79 24.91 278.7 27.61 271.74 30.32 279.97 33.02 263.52 35.72 272.38 38.42 259.09 41.12 267.95 43.82 247.71 46.52 274.27 49.23 261.62 51.93 277.44 54.63 263.52 57.33 275.54 60.03 245.81 62.73 264.79 65.44 232.53 68.14 262.89 70.84 212.93 73.54 251.51 76.24 213.56 78.94 260.36 81.65 218.62 84.35 259.73 87.05 229.37 89.75 266.68 92.45 254.03 95.15 259.73 97.86 247.71 100.56 266.05 103.26 239.49 105.96 255.3 108.66 250.87 111.36 278.07 114.07 268.58 116.77 278.07 119.47 265.42 122.17 277.44 124.87 262.26 127.57 277.44 130.28 269.21 132.98 278.07 135.68 260.99 138.38 278.07 141.08 242.65 143.78 264.79 146.49 233.16 149.19 260.99 151.89 214.82 154.59 273.01 157.29 229.37 159.99 273.64 162.69 250.24 165.4 276.17 168.1 259.73 170.8 276.17 173.5 243.92 176.2 273.64 178.9 263.52 181.61 275.54 184.31 272.38 187.01 276.8 189.71 268.58 192.41 278.07 195.11 276.17 197.82 278.7 200.52 268.58 203.22 278.07 205.92 270.48 208.62 276.8 211.32 275.54 214.03 278.07 216.73 276.17 219.43 278.7 222.13 270.48 224.83 278.07 227.53 255.93 230.24 278.07 232.94 243.28 235.64 262.89 238.34 233.16 241.04 254.67 243.74 216.09 246.45 248.98 249.15 212.29 251.85 234.43 254.55 214.82 257.25 247.08 259.95 213.56 262.66 259.73 265.36 224.31 268.06 263.52 270.76 226.84 273.46 266.68 276.16 241.39 278.86 271.11 281.57 251.51 284.27 275.54 286.97 261.62 289.67 273.01 292.37 267.95 295.07 275.54 297.78 260.36 300.48 277.44 303.18 266.05 305.88 278.07 308.58 260.36 311.28 278.07 313.99 268.58 316.69 278.07 319.39 274.91 322.09 277.44 324.79 269.21 327.49 277.44 330.2 270.48 332.9 277.44 335.6 273.64 338.3 276.8 341 244.55 343.7 269.21 346.41 254.03 349.58 279.97 352.28 276.17 354.99 279.97 357.69 274.27 360.39 276.8 363.09 271.11 365.79 279.33 368.49 264.79 371.2 278.7 373.9 271.74 376.6 279.97 379.3 263.52 382 272.38 384.7 259.09 387.41 267.95 390.11 247.71 392.81 274.27 395.51 261.62 398.21 277.44 400.91 263.52 403.62 275.54 406.32 245.81 409.02 264.79 411.72 232.53 414.42 262.89 417.12 212.93 419.83 251.51 422.53 213.56 425.23 260.36 427.93 218.62 430.63 259.73 433.33 229.37 436.04 266.68 438.74 254.03 441.44 259.73 444.14 247.71 446.84 266.05 449.54 239.49 452.25 255.3 454.95 250.87 457.65 278.07 460.35 268.58 463.05 278.07 465.75 265.42 468.45 277.44 471.16 262.26 473.86 277.44 476.56 269.21 479.26 278.07 481.96 260.99 484.66 278.07 487.37 242.65 490.07 264.79 492.77 233.16 495.47 260.99 498.17 214.82 500.87 273.01 503.58 229.37 506.28 273.64 508.98 250.24 511.68 276.17 514.38 259.73 517.08 276.17 519.79 243.92 522.49 273.64 525.19 263.52 527.89 275.54 530.59 272.38 533.29 276.8 536 268.58 538.7 278.07 541.4 276.17 544.1 278.7 546.8 268.58 549.5 278.07 552.21 270.48 554.91 276.8 557.61 275.54 560.31 278.07 563.01 276.17 565.71 278.7 568.42 270.48 571.12 278.07 573.82 255.93 576.52 278.07 579.22 243.28 581.92 262.89 584.62 233.16 587.33 254.67 590.03 216.09 592.73 248.98 595.43 212.29 598.13 234.43 600.83 214.82 603.54 247.08 606.24 213.56 608.94 259.73 611.64 224.31 614.34 263.52 617.04 226.84 619.75 266.68 622.45 241.39 625.15 271.11 627.85 251.51 630.55 275.54 633.25 261.62 635.96 273.01 638.66 267.95 641.36 275.54 644.06 260.36 646.76 277.44 649.46 266.05 652.17 278.07 654.87 260.36 657.57 278.07 660.27 268.58 662.97 278.07 665.67 274.91 668.38 277.44 671.08 269.21 673.78 277.44 676.48 270.48 679.18 277.44 681.88 273.64 684.59 276.8 687.29 244.55 689.99 269.21 692.69 254.03 695.39 279.97"
            />
          </g>
          <g class="cls-4">
            <polygon
              class="cls-7"
              points="695.39 279.97 692.69 293.01 689.99 285.38 687.29 297.79 684.59 281.56 681.88 283.15 679.18 281.24 676.48 284.74 673.78 281.24 671.08 285.38 668.38 281.24 665.67 282.51 662.97 280.92 660.27 285.69 657.57 280.92 654.87 289.83 652.17 280.92 649.46 286.97 646.76 281.24 644.06 289.83 641.36 282.19 638.66 286.01 635.96 283.47 633.25 289.2 630.55 282.19 627.85 294.29 625.15 284.42 622.45 299.38 619.75 286.65 617.04 306.7 614.34 288.24 611.64 307.97 608.94 290.15 606.24 313.38 603.54 296.52 600.83 312.75 598.13 302.88 595.43 314.02 592.73 295.56 590.03 312.11 587.33 292.7 584.62 303.52 581.92 288.56 579.22 298.43 576.52 280.92 573.82 292.06 571.12 280.92 568.42 284.74 565.71 280.6 563.01 281.87 560.31 280.92 557.61 282.19 554.91 281.56 552.21 284.74 549.5 280.92 546.8 285.69 544.1 280.6 541.4 281.87 538.7 280.92 536 285.69 533.29 281.56 530.59 283.78 527.89 282.19 525.19 288.24 522.49 283.15 519.79 298.11 517.08 281.87 514.38 290.15 511.68 281.87 508.98 294.92 506.28 283.15 503.58 305.43 500.87 283.47 498.17 312.75 495.47 289.51 492.77 303.52 490.07 287.6 487.37 298.74 484.66 280.92 481.96 289.51 479.26 280.92 476.56 285.38 473.86 281.24 471.16 288.88 468.45 281.24 465.75 287.29 463.05 280.92 460.35 285.69 457.65 280.92 454.95 294.61 452.25 292.38 449.54 300.33 446.84 286.97 444.14 296.2 441.44 290.15 438.74 293.01 436.04 286.65 433.33 305.43 430.63 290.15 427.93 310.84 425.23 289.83 422.53 313.38 419.83 294.29 417.12 313.7 414.42 288.56 411.72 303.84 409.02 287.6 406.32 297.15 403.62 282.19 400.91 288.24 398.21 281.24 395.51 289.2 392.81 282.83 390.11 296.2 387.41 286.01 384.7 290.47 382 283.78 379.3 288.24 376.6 279.97 373.9 284.1 371.2 280.6 368.49 287.6 365.79 280.28 363.09 284.42 360.39 281.56 357.69 282.83 354.99 279.97 352.28 281.87 349.58 279.97 346.41 293.01 343.7 285.38 341 297.79 338.3 281.56 335.6 283.15 332.9 281.24 330.2 284.74 327.49 281.24 324.79 285.38 322.09 281.24 319.39 282.51 316.69 280.92 313.99 285.69 311.28 280.92 308.58 289.83 305.88 280.92 303.18 286.97 300.48 281.24 297.78 289.83 295.07 282.19 292.37 286.01 289.67 283.47 286.97 289.2 284.27 282.19 281.57 294.29 278.86 284.42 276.16 299.38 273.46 286.65 270.76 306.7 268.06 288.24 265.36 307.97 262.66 290.15 259.95 313.38 257.25 296.52 254.55 312.75 251.85 302.88 249.15 314.02 246.45 295.56 243.74 312.11 241.04 292.7 238.34 303.52 235.64 288.56 232.94 298.43 230.24 280.92 227.53 292.06 224.83 280.92 222.13 284.74 219.43 280.6 216.73 281.87 214.03 280.92 211.32 282.19 208.62 281.56 205.92 284.74 203.22 280.92 200.52 285.69 197.82 280.6 195.11 281.87 192.41 280.92 189.71 285.69 187.01 281.56 184.31 283.78 181.61 282.19 178.9 288.24 176.2 283.15 173.5 298.11 170.8 281.87 168.1 290.15 165.4 281.87 162.69 294.92 159.99 283.15 157.29 305.43 154.59 283.47 151.89 312.75 149.19 289.51 146.49 303.52 143.78 287.6 141.08 298.74 138.38 280.92 135.68 289.51 132.98 280.92 130.28 285.38 127.57 281.24 124.87 288.88 122.17 281.24 119.47 287.29 116.77 280.92 114.07 285.69 111.36 280.92 108.66 294.61 105.96 292.38 103.26 300.33 100.56 286.97 97.86 296.2 95.15 290.15 92.45 293.01 89.75 286.65 87.05 305.43 84.35 290.15 81.65 310.84 78.94 289.83 76.24 313.38 73.54 294.29 70.84 313.7 68.14 288.56 65.44 303.84 62.73 287.6 60.03 297.15 57.33 282.19 54.63 288.24 51.93 281.24 49.23 289.2 46.52 282.83 43.82 296.2 41.12 286.01 38.42 290.47 35.72 283.78 33.02 288.24 30.32 279.97 27.61 284.1 24.91 280.6 22.21 287.6 19.51 280.28 16.81 284.42 14.11 281.56 11.4 282.83 8.7 279.97 6 281.87 3.3 279.97 6 278.06 8.7 279.97 11.4 277.1 14.11 278.37 16.81 275.51 19.51 279.65 22.21 272.33 24.91 279.33 27.61 275.83 30.32 279.97 33.02 271.69 35.72 276.15 38.42 269.46 41.12 273.92 43.82 263.73 46.52 277.1 49.23 270.74 51.93 278.69 54.63 271.69 57.33 277.74 60.03 262.78 62.73 272.33 65.44 256.09 68.14 271.37 70.84 246.23 73.54 265.64 76.24 246.55 78.94 270.1 81.65 249.09 84.35 269.78 87.05 254.5 89.75 273.28 92.45 266.92 95.15 269.78 97.86 263.73 100.56 272.96 103.26 259.6 105.96 267.55 108.66 265.32 111.36 279.01 114.07 274.24 116.77 279.01 119.47 272.64 122.17 278.69 124.87 271.05 127.57 278.69 130.28 274.55 132.98 279.01 135.68 270.42 138.38 279.01 141.08 261.19 143.78 272.33 146.49 256.41 149.19 270.42 151.89 247.18 154.59 276.46 157.29 254.5 159.99 276.78 162.69 265.01 165.4 278.06 168.1 269.78 170.8 278.06 173.5 261.82 176.2 276.78 178.9 271.69 181.61 277.74 184.31 276.15 187.01 278.37 189.71 274.24 192.41 279.01 195.11 278.06 197.82 279.33 200.52 274.24 203.22 279.01 205.92 275.19 208.62 278.37 211.32 277.74 214.03 279.01 216.73 278.06 219.43 279.33 222.13 275.19 224.83 279.01 227.53 267.87 230.24 279.01 232.94 261.51 235.64 271.37 238.34 256.41 241.04 267.23 243.74 247.82 246.45 264.37 249.15 245.91 251.85 257.05 254.55 247.18 257.25 263.41 259.95 246.55 262.66 269.78 265.36 251.96 268.06 271.69 270.76 253.23 273.46 273.28 276.16 260.55 278.86 275.51 281.57 265.64 284.27 277.74 286.97 270.74 289.67 276.46 292.37 273.92 295.07 277.74 297.78 270.1 300.48 278.69 303.18 272.96 305.88 279.01 308.58 270.1 311.28 279.01 313.99 274.24 316.69 279.01 319.39 277.42 322.09 278.69 324.79 274.55 327.49 278.69 330.2 275.19 332.9 278.69 335.6 276.78 338.3 278.37 341 262.14 343.7 274.55 346.41 266.92 349.58 279.97 352.28 278.06 354.99 279.97 357.69 277.1 360.39 278.37 363.09 275.51 365.79 279.65 368.49 272.33 371.2 279.33 373.9 275.83 376.6 279.97 379.3 271.69 382 276.15 384.7 269.46 387.41 273.92 390.11 263.73 392.81 277.1 395.51 270.74 398.21 278.69 400.91 271.69 403.62 277.74 406.32 262.78 409.02 272.33 411.72 256.09 414.42 271.37 417.12 246.23 419.83 265.64 422.53 246.55 425.23 270.1 427.93 249.09 430.63 269.78 433.33 254.5 436.04 273.28 438.74 266.92 441.44 269.78 444.14 263.73 446.84 272.96 449.54 259.6 452.25 267.55 454.95 265.32 457.65 279.01 460.35 274.24 463.05 279.01 465.75 272.64 468.45 278.69 471.16 271.05 473.86 278.69 476.56 274.55 479.26 279.01 481.96 270.42 484.66 279.01 487.37 261.19 490.07 272.33 492.77 256.41 495.47 270.42 498.17 247.18 500.87 276.46 503.58 254.5 506.28 276.78 508.98 265.01 511.68 278.06 514.38 269.78 517.08 278.06 519.79 261.82 522.49 276.78 525.19 271.69 527.89 277.74 530.59 276.15 533.29 278.37 536 274.24 538.7 279.01 541.4 278.06 544.1 279.33 546.8 274.24 549.5 279.01 552.21 275.19 554.91 278.37 557.61 277.74 560.31 279.01 563.01 278.06 565.71 279.33 568.42 275.19 571.12 279.01 573.82 267.87 576.52 279.01 579.22 261.51 581.92 271.37 584.62 256.41 587.33 267.23 590.03 247.82 592.73 264.37 595.43 245.91 598.13 257.05 600.83 247.18 603.54 263.41 606.24 246.55 608.94 269.78 611.64 251.96 614.34 271.69 617.04 253.23 619.75 273.28 622.45 260.55 625.15 275.51 627.85 265.64 630.55 277.74 633.25 270.74 635.96 276.46 638.66 273.92 641.36 277.74 644.06 270.1 646.76 278.69 649.46 272.96 652.17 279.01 654.87 270.1 657.57 279.01 660.27 274.24 662.97 279.01 665.67 277.42 668.38 278.69 671.08 274.55 673.78 278.69 676.48 275.19 679.18 278.69 681.88 276.78 684.59 278.37 687.29 262.14 689.99 274.55 692.69 266.92 695.39 279.97"
            />
          </g>
          <g class="cls-4">
            <polygon
              class="cls-9"
              points="695.39 279.97 692.69 283.11 689.99 281.27 687.29 284.26 684.59 280.35 681.88 280.73 679.18 280.27 676.48 281.11 673.78 280.27 671.08 281.27 668.38 280.27 665.67 280.58 662.97 280.2 660.27 281.34 657.57 280.2 654.87 282.34 652.17 280.2 649.46 281.65 646.76 280.27 644.06 282.34 641.36 280.5 638.66 281.42 635.96 280.81 633.25 282.19 630.55 280.5 627.85 283.41 625.15 281.04 622.45 284.64 619.75 281.57 617.04 286.4 614.34 281.96 611.64 286.71 608.94 282.42 606.24 288.01 603.54 283.95 600.83 287.86 598.13 285.48 595.43 288.16 592.73 283.72 590.03 287.7 587.33 283.03 584.62 285.63 581.92 282.03 579.22 284.41 576.52 280.2 573.82 282.88 571.12 280.2 568.42 281.11 565.71 280.12 563.01 280.42 560.31 280.2 557.61 280.5 554.91 280.35 552.21 281.11 549.5 280.2 546.8 281.34 544.1 280.12 541.4 280.42 538.7 280.2 536 281.34 533.29 280.35 530.59 280.88 527.89 280.5 525.19 281.96 522.49 280.73 519.79 284.33 517.08 280.42 514.38 282.42 511.68 280.42 508.98 283.57 506.28 280.73 503.58 286.09 500.87 280.81 498.17 287.86 495.47 282.26 492.77 285.63 490.07 281.8 487.37 284.49 484.66 280.2 481.96 282.26 479.26 280.2 476.56 281.27 473.86 280.27 471.16 282.11 468.45 280.27 465.75 281.73 463.05 280.2 460.35 281.34 457.65 280.2 454.95 283.49 452.25 282.95 449.54 284.87 446.84 281.65 444.14 283.87 441.44 282.42 438.74 283.11 436.04 281.57 433.33 286.09 430.63 282.42 427.93 287.4 425.23 282.34 422.53 288.01 419.83 283.41 417.12 288.09 414.42 282.03 411.72 285.71 409.02 281.8 406.32 284.1 403.62 280.5 400.91 281.96 398.21 280.27 395.51 282.19 392.81 280.65 390.11 283.87 387.41 281.42 384.7 282.49 382 280.88 379.3 281.96 376.6 279.97 373.9 280.96 371.2 280.12 368.49 281.8 365.79 280.04 363.09 281.04 360.39 280.35 357.69 280.65 354.99 279.97 352.28 280.42 349.58 279.97 346.41 283.11 343.7 281.27 341 284.26 338.3 280.35 335.6 280.73 332.9 280.27 330.2 281.11 327.49 280.27 324.79 281.27 322.09 280.27 319.39 280.58 316.69 280.2 313.99 281.34 311.28 280.2 308.58 282.34 305.88 280.2 303.18 281.65 300.48 280.27 297.78 282.34 295.07 280.5 292.37 281.42 289.67 280.81 286.97 282.19 284.27 280.5 281.57 283.41 278.86 281.04 276.16 284.64 273.46 281.57 270.76 286.4 268.06 281.96 265.36 286.71 262.66 282.42 259.95 288.01 257.25 283.95 254.55 287.86 251.85 285.48 249.15 288.16 246.45 283.72 243.74 287.7 241.04 283.03 238.34 285.63 235.64 282.03 232.94 284.41 230.24 280.2 227.53 282.88 224.83 280.2 222.13 281.11 219.43 280.12 216.73 280.42 214.03 280.2 211.32 280.5 208.62 280.35 205.92 281.11 203.22 280.2 200.52 281.34 197.82 280.12 195.11 280.42 192.41 280.2 189.71 281.34 187.01 280.35 184.31 280.88 181.61 280.5 178.9 281.96 176.2 280.73 173.5 284.33 170.8 280.42 168.1 282.42 165.4 280.42 162.69 283.57 159.99 280.73 157.29 286.09 154.59 280.81 151.89 287.86 149.19 282.26 146.49 285.63 143.78 281.8 141.08 284.49 138.38 280.2 135.68 282.26 132.98 280.2 130.28 281.27 127.57 280.27 124.87 282.11 122.17 280.27 119.47 281.73 116.77 280.2 114.07 281.34 111.36 280.2 108.66 283.49 105.96 282.95 103.26 284.87 100.56 281.65 97.86 283.87 95.15 282.42 92.45 283.11 89.75 281.57 87.05 286.09 84.35 282.42 81.65 287.4 78.94 282.34 76.24 288.01 73.54 283.41 70.84 288.09 68.14 282.03 65.44 285.71 62.73 281.8 60.03 284.1 57.33 280.5 54.63 281.96 51.93 280.27 49.23 282.19 46.52 280.65 43.82 283.87 41.12 281.42 38.42 282.49 35.72 280.88 33.02 281.96 30.32 279.97 27.61 280.96 24.91 280.12 22.21 281.8 19.51 280.04 16.81 281.04 14.11 280.35 11.4 280.65 8.7 279.97 6 280.42 3.3 279.97 6 279.51 8.7 279.97 11.4 279.28 14.11 279.58 16.81 278.89 19.51 279.89 22.21 278.13 24.91 279.81 27.61 278.97 30.32 279.97 33.02 277.97 35.72 279.05 38.42 277.44 41.12 278.51 43.82 276.06 46.52 279.28 49.23 277.74 51.93 279.66 54.63 277.97 57.33 279.43 60.03 275.83 62.73 278.13 65.44 274.22 68.14 277.9 70.84 271.84 73.54 276.52 76.24 271.92 78.94 277.59 81.65 272.53 84.35 277.51 87.05 273.84 89.75 278.36 92.45 276.82 95.15 277.51 97.86 276.06 100.56 278.28 103.26 275.06 105.96 276.98 108.66 276.44 111.36 279.74 114.07 278.59 116.77 279.74 119.47 278.2 122.17 279.66 124.87 277.82 127.57 279.66 130.28 278.66 132.98 279.74 135.68 277.67 138.38 279.74 141.08 275.45 143.78 278.13 146.49 274.3 149.19 277.67 151.89 272.07 154.59 279.12 157.29 273.84 159.99 279.2 162.69 276.36 165.4 279.51 168.1 277.51 170.8 279.51 173.5 275.6 176.2 279.2 178.9 277.97 181.61 279.43 184.31 279.05 187.01 279.58 189.71 278.59 192.41 279.74 195.11 279.51 197.82 279.81 200.52 278.59 203.22 279.74 205.92 278.82 208.62 279.58 211.32 279.43 214.03 279.74 216.73 279.51 219.43 279.81 222.13 278.82 224.83 279.74 227.53 277.05 230.24 279.74 232.94 275.52 235.64 277.9 238.34 274.3 241.04 276.9 243.74 272.23 246.45 276.21 249.15 271.77 251.85 274.45 254.55 272.07 257.25 275.98 259.95 271.92 262.66 277.51 265.36 273.22 268.06 277.97 270.76 273.53 273.46 278.36 276.16 275.29 278.86 278.89 281.57 276.52 284.27 279.43 286.97 277.74 289.67 279.12 292.37 278.51 295.07 279.43 297.78 277.59 300.48 279.66 303.18 278.28 305.88 279.74 308.58 277.59 311.28 279.74 313.99 278.59 316.69 279.74 319.39 279.35 322.09 279.66 324.79 278.66 327.49 279.66 330.2 278.82 332.9 279.66 335.6 279.2 338.3 279.58 341 275.68 343.7 278.66 346.41 276.82 349.58 279.97 352.28 279.51 354.99 279.97 357.69 279.28 360.39 279.58 363.09 278.89 365.79 279.89 368.49 278.13 371.2 279.81 373.9 278.97 376.6 279.97 379.3 277.97 382 279.05 384.7 277.44 387.41 278.51 390.11 276.06 392.81 279.28 395.51 277.74 398.21 279.66 400.91 277.97 403.62 279.43 406.32 275.83 409.02 278.13 411.72 274.22 414.42 277.9 417.12 271.84 419.83 276.52 422.53 271.92 425.23 277.59 427.93 272.53 430.63 277.51 433.33 273.84 436.04 278.36 438.74 276.82 441.44 277.51 444.14 276.06 446.84 278.28 449.54 275.06 452.25 276.98 454.95 276.44 457.65 279.74 460.35 278.59 463.05 279.74 465.75 278.2 468.45 279.66 471.16 277.82 473.86 279.66 476.56 278.66 479.26 279.74 481.96 277.67 484.66 279.74 487.37 275.45 490.07 278.13 492.77 274.3 495.47 277.67 498.17 272.07 500.87 279.12 503.58 273.84 506.28 279.2 508.98 276.36 511.68 279.51 514.38 277.51 517.08 279.51 519.79 275.6 522.49 279.2 525.19 277.97 527.89 279.43 530.59 279.05 533.29 279.58 536 278.59 538.7 279.74 541.4 279.51 544.1 279.81 546.8 278.59 549.5 279.74 552.21 278.82 554.91 279.58 557.61 279.43 560.31 279.74 563.01 279.51 565.71 279.81 568.42 278.82 571.12 279.74 573.82 277.05 576.52 279.74 579.22 275.52 581.92 277.9 584.62 274.3 587.33 276.9 590.03 272.23 592.73 276.21 595.43 271.77 598.13 274.45 600.83 272.07 603.54 275.98 606.24 271.92 608.94 277.51 611.64 273.22 614.34 277.97 617.04 273.53 619.75 278.36 622.45 275.29 625.15 278.89 627.85 276.52 630.55 279.43 633.25 277.74 635.96 279.12 638.66 278.51 641.36 279.43 644.06 277.59 646.76 279.66 649.46 278.28 652.17 279.74 654.87 277.59 657.57 279.74 660.27 278.59 662.97 279.74 665.67 279.35 668.38 279.66 671.08 278.66 673.78 279.66 676.48 278.82 679.18 279.66 681.88 279.2 684.59 279.58 687.29 275.68 689.99 278.66 692.69 276.82 695.39 279.97"
            />
          </g>
          <g>
            <path
              class="cls-2"
              d="m-21.42,279.97c237.54-.79,503.99-.8,741.53,0-237.54.8-503.99.79-741.53,0h0Z"
            />
            <path
              class="cls-2"
              d="m3.3,279.97c221.7-.79,470.39-.8,692.09,0-221.7.8-470.39.79-692.09,0h0Z"
            />
          </g>
        </g>
      </g>
    </g>
  </g>
</svg>
