<?xml version="1.0" encoding="UTF-8" ?>
<svg
  xmlns="http://www.w3.org/2000/svg"
  xmlns:xlink="http://www.w3.org/1999/xlink"
  viewBox="0 0 750 735"
>
  <defs>
    <style>
      .cls-1 {
        fill: url(#linear-gradient-2);
      }

      .cls-2 {
        fill: #fff;
      }

      .cls-3 {
        isolation: isolate;
      }

      .cls-4 {
        mix-blend-mode: color-dodge;
        opacity: .4;
      }

      .cls-5 {
        clip-path: url(#clippath);
      }

      .cls-6 {
        fill: none;
      }

      .cls-7 {
        fill: url(#linear-gradient-3);
      }

      .cls-8 {
        fill: url(#linear-gradient);
      }

      .cls-9 {
        fill: url(#linear-gradient-4);
      }
    </style>
    <clipPath id="clippath">
      <rect class="cls-6" x="-33" y="30.5" width="984" height="348" />
    </clipPath>
    <linearGradient
      id="linear-gradient"
      x1="69.82"
      y1="269.42"
      x2="823.28"
      y2="437.39"
      gradientUnits="userSpaceOnUse"
    >
      <stop offset=".25" stop-color="#70f2a4" />
      <stop offset=".25" stop-color="#6ff1a4" />
      <stop offset=".65" stop-color="#56bdda" />
      <stop offset=".85" stop-color="#4ca9f0" />
    </linearGradient>
    <linearGradient
      id="linear-gradient-2"
      x1="2.73"
      y1="292.43"
      x2="966.74"
      y2="423.58"
      gradientUnits="userSpaceOnUse"
    >
      <stop offset=".12" stop-color="#70f2a4" />
      <stop offset=".85" stop-color="#4ca9f0" />
    </linearGradient>
    <linearGradient
      id="linear-gradient-3"
      x1="-28.36"
      y1="351.89"
      x2="944.52"
      y2="351.89"
      gradientUnits="userSpaceOnUse"
    >
      <stop offset="0" stop-color="#70f2a4" stop-opacity=".5" />
      <stop offset="1" stop-color="#4ca9f0" stop-opacity=".5" />
    </linearGradient>
    <linearGradient
      id="linear-gradient-4"
      x1="-28.36"
      y1="351.89"
      x2="944.52"
      y2="351.89"
      gradientUnits="userSpaceOnUse"
    >
      <stop offset="0" stop-color="#70f2a4" stop-opacity=".5" />
      <stop offset="1" stop-color="#4ca9f0" stop-opacity=".5" />
    </linearGradient>
  </defs>
  <g class="cls-3">
    <g id="_750_x_500_px" data-name="750 x 500 px">
      <g class="cls-5">
        <g>
          <g class="cls-4">
            <polygon
              class="cls-8"
              points="944.52 351.89 940.72 408.88 936.93 375.52 933.13 429.73 929.33 358.84 925.53 365.79 921.74 357.45 917.94 372.74 914.14 357.45 910.34 375.52 906.54 357.45 902.75 363.01 898.95 356.06 895.15 376.91 891.35 356.06 887.56 394.98 883.76 356.06 879.96 382.47 876.16 357.45 872.37 394.98 868.57 361.62 864.77 378.3 860.97 367.18 857.17 392.2 853.38 361.62 849.58 414.44 845.78 371.35 841.98 436.68 838.19 381.08 834.39 468.65 830.59 388.03 826.79 474.21 823 396.37 819.2 497.84 815.4 424.17 811.6 495.06 807.8 451.97 804.01 500.62 800.21 420 796.41 492.28 792.61 407.49 788.82 454.75 785.02 389.42 781.22 432.51 777.42 356.06 773.62 404.71 769.83 356.06 766.03 372.74 762.23 354.67 758.43 360.23 754.64 356.06 750.84 361.62 747.04 358.84 743.24 372.74 739.45 356.06 735.65 376.91 731.85 354.67 728.05 360.23 724.25 356.06 720.46 376.91 716.66 358.84 712.86 368.57 709.06 361.62 705.27 388.03 701.47 365.79 697.67 431.12 693.87 360.23 690.07 396.37 686.28 360.23 682.48 417.22 678.68 365.79 674.88 463.09 671.09 367.18 667.29 495.06 663.49 393.59 659.69 454.75 655.9 385.25 652.1 433.9 648.3 356.06 644.5 393.59 640.7 356.06 636.91 375.52 633.11 357.45 629.31 390.81 625.51 357.45 621.72 383.86 617.92 356.06 614.12 376.91 610.32 356.06 606.53 415.83 602.73 406.1 598.93 440.85 595.13 382.47 591.33 422.78 587.54 396.37 583.74 408.88 579.94 381.08 576.14 463.09 572.35 396.37 568.55 486.72 564.75 394.98 560.95 497.84 557.15 414.44 553.36 499.23 549.56 389.42 545.76 456.14 541.96 385.25 538.17 426.95 534.37 361.62 530.57 388.03 526.77 357.45 522.98 392.2 519.18 364.4 515.38 422.78 511.58 378.3 507.78 397.76 503.99 368.57 500.19 388.03 496.39 351.89 492.59 369.96 488.8 354.67 485 385.25 481.2 353.28 477.4 371.35 473.6 358.84 469.81 364.4 466.01 351.89 462.21 360.23 458.41 351.89 453.95 408.88 450.15 375.52 446.35 429.73 442.55 358.84 438.76 365.79 434.96 357.45 431.16 372.74 427.36 357.45 423.57 375.52 419.77 357.45 415.97 363.01 412.17 356.06 408.37 376.91 404.58 356.06 400.78 394.98 396.98 356.06 393.18 382.47 389.39 357.45 385.59 394.98 381.79 361.62 377.99 378.3 374.2 367.18 370.4 392.2 366.6 361.62 362.8 414.44 359 371.35 355.21 436.68 351.41 381.08 347.61 468.65 343.81 388.03 340.02 474.21 336.22 396.37 332.42 497.84 328.62 424.17 324.83 495.06 321.03 451.97 317.23 500.62 313.43 420 309.63 492.28 305.84 407.49 302.04 454.75 298.24 389.42 294.44 432.51 290.65 356.06 286.85 404.71 283.05 356.06 279.25 372.74 275.45 354.67 271.66 360.23 267.86 356.06 264.06 361.62 260.26 358.84 256.47 372.74 252.67 356.06 248.87 376.91 245.07 354.67 241.28 360.23 237.48 356.06 233.68 376.91 229.88 358.84 226.08 368.57 222.29 361.62 218.49 388.03 214.69 365.79 210.89 431.12 207.1 360.23 203.3 396.37 199.5 360.23 195.7 417.22 191.9 365.79 188.11 463.09 184.31 367.18 180.51 495.06 176.71 393.59 172.92 454.75 169.12 385.25 165.32 433.9 161.52 356.06 157.73 393.59 153.93 356.06 150.13 375.52 146.33 357.45 142.53 390.81 138.74 357.45 134.94 383.86 131.14 356.06 127.34 376.91 123.55 356.06 119.75 415.83 115.95 406.1 112.15 440.85 108.35 382.47 104.56 422.78 100.76 396.37 96.96 408.88 93.16 381.08 89.37 463.09 85.57 396.37 81.77 486.72 77.97 394.98 74.18 497.84 70.38 414.44 66.58 499.23 62.78 389.42 58.98 456.14 55.19 385.25 51.39 426.95 47.59 361.62 43.79 388.03 40 357.45 36.2 392.2 32.4 364.4 28.6 422.78 24.81 378.3 21.01 397.76 17.21 368.57 13.41 388.03 9.61 351.89 5.82 369.96 2.02 354.67 -1.78 385.25 -5.58 353.28 -9.37 371.35 -13.17 358.84 -16.97 364.4 -20.77 351.89 -24.57 360.23 -28.36 351.89 -24.57 343.55 -20.77 351.89 -16.97 339.39 -13.17 344.94 -9.37 332.44 -5.58 350.5 -1.78 318.54 2.02 349.11 5.82 333.83 9.61 351.89 13.41 315.76 17.21 335.22 21.01 306.03 24.81 325.49 28.6 281.01 32.4 339.39 36.2 311.59 40 346.33 43.79 315.76 47.59 342.16 51.39 276.84 55.19 318.54 58.98 247.65 62.78 314.37 66.58 204.56 70.38 289.35 74.18 205.95 77.97 308.81 81.77 217.07 85.57 307.42 89.37 240.7 93.16 322.71 96.96 294.91 100.76 307.42 104.56 281.01 108.35 321.32 112.15 262.94 115.95 297.69 119.75 287.96 123.55 347.72 127.34 326.88 131.14 347.72 134.94 319.93 138.74 346.33 142.53 312.98 146.33 346.33 150.13 328.27 153.93 347.72 157.73 310.2 161.52 347.72 165.32 269.89 169.12 318.54 172.92 249.04 176.71 310.2 180.51 208.73 184.31 336.61 188.11 240.7 191.9 338 195.7 286.57 199.5 343.55 203.3 307.42 207.1 343.55 210.89 272.67 214.69 338 218.49 315.76 222.29 342.16 226.08 335.22 229.88 344.94 233.68 326.88 237.48 347.72 241.28 343.55 245.07 349.11 248.87 326.88 252.67 347.72 256.47 331.05 260.26 344.94 264.06 342.16 267.86 347.72 271.66 343.55 275.45 349.11 279.25 331.05 283.05 347.72 286.85 299.08 290.65 347.72 294.44 271.28 298.24 314.37 302.04 249.04 305.84 296.3 309.63 211.51 313.43 283.79 317.23 203.17 321.03 251.82 324.83 208.73 328.62 279.62 332.42 205.95 336.22 307.42 340.02 229.58 343.81 315.76 347.61 235.14 351.41 322.71 355.21 267.11 359 332.44 362.8 289.35 366.6 342.16 370.4 311.59 374.2 336.61 377.99 325.49 381.79 342.16 385.59 308.81 389.39 346.33 393.18 321.32 396.98 347.72 400.78 308.81 404.58 347.72 408.37 326.88 412.17 347.72 415.97 340.78 419.77 346.33 423.57 328.27 427.36 346.33 431.16 331.05 434.96 346.33 438.76 338 442.55 344.94 446.35 274.06 450.15 328.27 453.95 294.91 458.41 351.89 462.21 343.55 466.01 351.89 469.81 339.39 473.6 344.94 477.4 332.44 481.2 350.5 485 318.54 488.8 349.11 492.59 333.83 496.39 351.89 500.19 315.76 503.99 335.22 507.78 306.03 511.58 325.49 515.38 281.01 519.18 339.39 522.98 311.59 526.77 346.33 530.57 315.76 534.37 342.16 538.17 276.84 541.96 318.54 545.76 247.65 549.56 314.37 553.36 204.56 557.15 289.35 560.95 205.95 564.75 308.81 568.55 217.07 572.35 307.42 576.14 240.7 579.94 322.71 583.74 294.91 587.54 307.42 591.33 281.01 595.13 321.32 598.93 262.94 602.73 297.69 606.53 287.96 610.32 347.72 614.12 326.88 617.92 347.72 621.72 319.93 625.51 346.33 629.31 312.98 633.11 346.33 636.91 328.27 640.7 347.72 644.5 310.2 648.3 347.72 652.1 269.89 655.9 318.54 659.69 249.04 663.49 310.2 667.29 208.73 671.09 336.61 674.88 240.7 678.68 338 682.48 286.57 686.28 343.55 690.07 307.42 693.87 343.55 697.67 272.67 701.47 338 705.27 315.76 709.06 342.16 712.86 335.22 716.66 344.94 720.46 326.88 724.25 347.72 728.05 343.55 731.85 349.11 735.65 326.88 739.45 347.72 743.24 331.05 747.04 344.94 750.84 342.16 754.64 347.72 758.43 343.55 762.23 349.11 766.03 331.05 769.83 347.72 773.62 299.08 777.42 347.72 781.22 271.28 785.02 314.37 788.82 249.04 792.61 296.3 796.41 211.51 800.21 283.79 804.01 203.17 807.8 251.82 811.6 208.73 815.4 279.62 819.2 205.95 823 307.42 826.79 229.58 830.59 315.76 834.39 235.14 838.19 322.71 841.98 267.11 845.78 332.44 849.58 289.35 853.38 342.16 857.17 311.59 860.97 336.61 864.77 325.49 868.57 342.16 872.37 308.81 876.16 346.33 879.96 321.32 883.76 347.72 887.56 308.81 891.35 347.72 895.15 326.88 898.95 347.72 902.75 340.78 906.54 346.33 910.34 328.27 914.14 346.33 917.94 331.05 921.74 346.33 925.53 338 929.33 344.94 933.13 274.06 936.93 328.27 940.72 294.91 944.52 351.89"
            />
          </g>
          <g class="cls-4">
            <polygon
              class="cls-1"
              points="944.52 351.89 940.72 385.92 936.93 366 933.13 398.36 929.33 356.04 925.53 360.19 921.74 355.21 917.94 364.34 914.14 355.21 910.34 366 906.54 355.21 902.75 358.53 898.95 354.38 895.15 366.83 891.35 354.38 887.56 377.62 883.76 354.38 879.96 370.15 876.16 355.21 872.37 377.62 868.57 357.7 864.77 367.66 860.97 361.02 857.17 375.96 853.38 357.7 849.58 389.23 845.78 363.51 841.98 402.51 838.19 369.32 834.39 421.6 830.59 373.47 826.79 424.91 823 378.45 819.2 439.02 815.4 395.04 811.6 437.36 807.8 411.64 804.01 440.68 800.21 392.55 796.41 435.7 792.61 385.09 788.82 413.3 785.02 374.3 781.22 400.02 777.42 354.38 773.62 383.43 769.83 354.38 766.03 364.34 762.23 353.55 758.43 356.87 754.64 354.38 750.84 357.7 747.04 356.04 743.24 364.34 739.45 354.38 735.65 366.83 731.85 353.55 728.05 356.87 724.25 354.38 720.46 366.83 716.66 356.04 712.86 361.85 709.06 357.7 705.27 373.47 701.47 360.19 697.67 399.19 693.87 356.87 690.07 378.45 686.28 356.87 682.48 390.89 678.68 360.19 674.88 418.28 671.09 361.02 667.29 437.36 663.49 376.79 659.69 413.3 655.9 371.81 652.1 400.85 648.3 354.38 644.5 376.79 640.7 354.38 636.91 366 633.11 355.21 629.31 375.13 625.51 355.21 621.72 370.98 617.92 354.38 614.12 366.83 610.32 354.38 606.53 390.06 602.73 384.26 598.93 405 595.13 370.15 591.33 394.21 587.54 378.45 583.74 385.92 579.94 369.32 576.14 418.28 572.35 378.45 568.55 432.38 564.75 377.62 560.95 439.02 557.15 389.23 553.36 439.85 549.56 374.3 545.76 414.13 541.96 371.81 538.17 396.7 534.37 357.7 530.57 373.47 526.77 355.21 522.98 375.96 519.18 359.36 515.38 394.21 511.58 367.66 507.78 379.28 503.99 361.85 500.19 373.47 496.39 351.89 492.59 362.68 488.8 353.55 485 371.81 481.2 352.72 477.4 363.51 473.6 356.04 469.81 359.36 466.01 351.89 462.21 356.87 458.41 351.89 453.95 385.92 450.15 366 446.35 398.36 442.55 356.04 438.76 360.19 434.96 355.21 431.16 364.34 427.36 355.21 423.57 366 419.77 355.21 415.97 358.53 412.17 354.38 408.37 366.83 404.58 354.38 400.78 377.62 396.98 354.38 393.18 370.15 389.39 355.21 385.59 377.62 381.79 357.7 377.99 367.66 374.2 361.02 370.4 375.96 366.6 357.7 362.8 389.23 359 363.51 355.21 402.51 351.41 369.32 347.61 421.6 343.81 373.47 340.02 424.91 336.22 378.45 332.42 439.02 328.62 395.04 324.83 437.36 321.03 411.64 317.23 440.68 313.43 392.55 309.63 435.7 305.84 385.09 302.04 413.3 298.24 374.3 294.44 400.02 290.65 354.38 286.85 383.43 283.05 354.38 279.25 364.34 275.45 353.55 271.66 356.87 267.86 354.38 264.06 357.7 260.26 356.04 256.47 364.34 252.67 354.38 248.87 366.83 245.07 353.55 241.28 356.87 237.48 354.38 233.68 366.83 229.88 356.04 226.08 361.85 222.29 357.7 218.49 373.47 214.69 360.19 210.89 399.19 207.1 356.87 203.3 378.45 199.5 356.87 195.7 390.89 191.9 360.19 188.11 418.28 184.31 361.02 180.51 437.36 176.71 376.79 172.92 413.3 169.12 371.81 165.32 400.85 161.52 354.38 157.73 376.79 153.93 354.38 150.13 366 146.33 355.21 142.53 375.13 138.74 355.21 134.94 370.98 131.14 354.38 127.34 366.83 123.55 354.38 119.75 390.06 115.95 384.26 112.15 405 108.35 370.15 104.56 394.21 100.76 378.45 96.96 385.92 93.16 369.32 89.37 418.28 85.57 378.45 81.77 432.38 77.97 377.62 74.18 439.02 70.38 389.23 66.58 439.85 62.78 374.3 58.98 414.13 55.19 371.81 51.39 396.7 47.59 357.7 43.79 373.47 40 355.21 36.2 375.96 32.4 359.36 28.6 394.21 24.81 367.66 21.01 379.28 17.21 361.85 13.41 373.47 9.61 351.89 5.82 362.68 2.02 353.55 -1.78 371.81 -5.58 352.72 -9.37 363.51 -13.17 356.04 -16.97 359.36 -20.77 351.89 -24.57 356.87 -28.36 351.89 -24.57 346.92 -20.77 351.89 -16.97 344.43 -13.17 347.75 -9.37 340.28 -5.58 351.06 -1.78 331.98 2.02 350.23 5.82 341.11 9.61 351.89 13.41 330.32 17.21 341.94 21.01 324.51 24.81 336.13 28.6 309.58 32.4 344.43 36.2 327.83 40 348.58 43.79 330.32 47.59 346.09 51.39 307.09 55.19 331.98 58.98 289.66 62.78 329.49 66.58 263.94 70.38 314.55 74.18 264.77 77.97 326.17 81.77 271.41 85.57 325.34 89.37 285.51 93.16 334.47 96.96 317.87 100.76 325.34 104.56 309.58 108.35 333.64 112.15 298.79 115.95 319.53 119.75 313.72 123.55 349.41 127.34 336.96 131.14 349.41 134.94 332.81 138.74 348.58 142.53 328.66 146.33 348.58 150.13 337.79 153.93 349.41 157.73 327 161.52 349.41 165.32 302.94 169.12 331.98 172.92 290.49 176.71 327 180.51 266.43 184.31 342.77 188.11 285.51 191.9 343.6 195.7 312.9 199.5 346.92 203.3 325.34 207.1 346.92 210.89 304.6 214.69 343.6 218.49 330.32 222.29 346.09 226.08 341.94 229.88 347.75 233.68 336.96 237.48 349.41 241.28 346.92 245.07 350.23 248.87 336.96 252.67 349.41 256.47 339.45 260.26 347.75 264.06 346.09 267.86 349.41 271.66 346.92 275.45 350.23 279.25 339.45 283.05 349.41 286.85 320.36 290.65 349.41 294.44 303.77 298.24 329.49 302.04 290.49 305.84 318.7 309.63 268.09 313.43 311.24 317.23 263.11 321.03 292.15 324.83 266.43 328.62 308.75 332.42 264.77 336.22 325.34 340.02 278.87 343.81 330.32 347.61 282.19 351.41 334.47 355.21 301.28 359 340.28 362.8 314.55 366.6 346.09 370.4 327.83 374.2 342.77 377.99 336.13 381.79 346.09 385.59 326.17 389.39 348.58 393.18 333.64 396.98 349.41 400.78 326.17 404.58 349.41 408.37 336.96 412.17 349.41 415.97 345.26 419.77 348.58 423.57 337.79 427.36 348.58 431.16 339.45 434.96 348.58 438.76 343.6 442.55 347.75 446.35 305.43 450.15 337.79 453.95 317.87 458.41 351.89 462.21 346.92 466.01 351.89 469.81 344.43 473.6 347.75 477.4 340.28 481.2 351.06 485 331.98 488.8 350.23 492.59 341.11 496.39 351.89 500.19 330.32 503.99 341.94 507.78 324.51 511.58 336.13 515.38 309.58 519.18 344.43 522.98 327.83 526.77 348.58 530.57 330.32 534.37 346.09 538.17 307.09 541.96 331.98 545.76 289.66 549.56 329.49 553.36 263.94 557.15 314.55 560.95 264.77 564.75 326.17 568.55 271.41 572.35 325.34 576.14 285.51 579.94 334.47 583.74 317.87 587.54 325.34 591.33 309.58 595.13 333.64 598.93 298.79 602.73 319.53 606.53 313.72 610.32 349.41 614.12 336.96 617.92 349.41 621.72 332.81 625.51 348.58 629.31 328.66 633.11 348.58 636.91 337.79 640.7 349.41 644.5 327 648.3 349.41 652.1 302.94 655.9 331.98 659.69 290.49 663.49 327 667.29 266.43 671.09 342.77 674.88 285.51 678.68 343.6 682.48 312.9 686.28 346.92 690.07 325.34 693.87 346.92 697.67 304.6 701.47 343.6 705.27 330.32 709.06 346.09 712.86 341.94 716.66 347.75 720.46 336.96 724.25 349.41 728.05 346.92 731.85 350.23 735.65 336.96 739.45 349.41 743.24 339.45 747.04 347.75 750.84 346.09 754.64 349.41 758.43 346.92 762.23 350.23 766.03 339.45 769.83 349.41 773.62 320.36 777.42 349.41 781.22 303.77 785.02 329.49 788.82 290.49 792.61 318.7 796.41 268.09 800.21 311.24 804.01 263.11 807.8 292.15 811.6 266.43 815.4 308.75 819.2 264.77 823 325.34 826.79 278.87 830.59 330.32 834.39 282.19 838.19 334.47 841.98 301.28 845.78 340.28 849.58 314.55 853.38 346.09 857.17 327.83 860.97 342.77 864.77 336.13 868.57 346.09 872.37 326.17 876.16 348.58 879.96 333.64 883.76 349.41 887.56 326.17 891.35 349.41 895.15 336.96 898.95 349.41 902.75 345.26 906.54 348.58 910.34 337.79 914.14 348.58 917.94 339.45 921.74 348.58 925.53 343.6 929.33 347.75 933.13 305.43 936.93 337.79 940.72 317.87 944.52 351.89"
            />
          </g>
          <g class="cls-4">
            <polygon
              class="cls-7"
              points="944.52 351.89 940.72 369.02 936.93 358.99 933.13 375.28 929.33 353.98 925.53 356.07 921.74 353.56 917.94 358.16 914.14 353.56 910.34 358.99 906.54 353.56 902.75 355.24 898.95 353.15 895.15 359.41 891.35 353.15 887.56 364.84 883.76 353.15 879.96 361.08 876.16 353.56 872.37 364.84 868.57 354.82 864.77 359.83 860.97 356.49 857.17 364 853.38 354.82 849.58 370.69 845.78 357.74 841.98 377.37 838.19 360.66 834.39 386.97 830.59 362.75 826.79 388.64 823 365.26 819.2 395.74 815.4 373.61 811.6 394.91 807.8 381.96 804.01 396.58 800.21 372.36 796.41 394.07 792.61 368.6 788.82 382.8 785.02 363.17 781.22 376.11 777.42 353.15 773.62 367.76 769.83 353.15 766.03 358.16 762.23 352.73 758.43 354.4 754.64 353.15 750.84 354.82 747.04 353.98 743.24 358.16 739.45 353.15 735.65 359.41 731.85 352.73 728.05 354.4 724.25 353.15 720.46 359.41 716.66 353.98 712.86 356.91 709.06 354.82 705.27 362.75 701.47 356.07 697.67 375.7 693.87 354.4 690.07 365.26 686.28 354.4 682.48 371.52 678.68 356.07 674.88 385.3 671.09 356.49 667.29 394.91 663.49 364.42 659.69 382.8 655.9 361.92 652.1 376.53 648.3 353.15 644.5 364.42 640.7 353.15 636.91 358.99 633.11 353.56 629.31 363.59 625.51 353.56 621.72 361.5 617.92 353.15 614.12 359.41 610.32 353.15 606.53 371.1 602.73 368.18 598.93 378.62 595.13 361.08 591.33 373.19 587.54 365.26 583.74 369.02 579.94 360.66 576.14 385.3 572.35 365.26 568.55 392.4 564.75 364.84 560.95 395.74 557.15 370.69 553.36 396.16 549.56 363.17 545.76 383.21 541.96 361.92 538.17 374.44 534.37 354.82 530.57 362.75 526.77 353.56 522.98 364 519.18 355.65 515.38 373.19 511.58 359.83 507.78 365.67 503.99 356.91 500.19 362.75 496.39 351.89 492.59 357.32 488.8 352.73 485 361.92 481.2 352.31 477.4 357.74 473.6 353.98 469.81 355.65 466.01 351.89 462.21 354.4 458.41 351.89 453.95 369.02 450.15 358.99 446.35 375.28 442.55 353.98 438.76 356.07 434.96 353.56 431.16 358.16 427.36 353.56 423.57 358.99 419.77 353.56 415.97 355.24 412.17 353.15 408.37 359.41 404.58 353.15 400.78 364.84 396.98 353.15 393.18 361.08 389.39 353.56 385.59 364.84 381.79 354.82 377.99 359.83 374.2 356.49 370.4 364 366.6 354.82 362.8 370.69 359 357.74 355.21 377.37 351.41 360.66 347.61 386.97 343.81 362.75 340.02 388.64 336.22 365.26 332.42 395.74 328.62 373.61 324.83 394.91 321.03 381.96 317.23 396.58 313.43 372.36 309.63 394.07 305.84 368.6 302.04 382.8 298.24 363.17 294.44 376.11 290.65 353.15 286.85 367.76 283.05 353.15 279.25 358.16 275.45 352.73 271.66 354.4 267.86 353.15 264.06 354.82 260.26 353.98 256.47 358.16 252.67 353.15 248.87 359.41 245.07 352.73 241.28 354.4 237.48 353.15 233.68 359.41 229.88 353.98 226.08 356.91 222.29 354.82 218.49 362.75 214.69 356.07 210.89 375.7 207.1 354.4 203.3 365.26 199.5 354.4 195.7 371.52 191.9 356.07 188.11 385.3 184.31 356.49 180.51 394.91 176.71 364.42 172.92 382.8 169.12 361.92 165.32 376.53 161.52 353.15 157.73 364.42 153.93 353.15 150.13 358.99 146.33 353.56 142.53 363.59 138.74 353.56 134.94 361.5 131.14 353.15 127.34 359.41 123.55 353.15 119.75 371.1 115.95 368.18 112.15 378.62 108.35 361.08 104.56 373.19 100.76 365.26 96.96 369.02 93.16 360.66 89.37 385.3 85.57 365.26 81.77 392.4 77.97 364.84 74.18 395.74 70.38 370.69 66.58 396.16 62.78 363.17 58.98 383.21 55.19 361.92 51.39 374.44 47.59 354.82 43.79 362.75 40 353.56 36.2 364 32.4 355.65 28.6 373.19 24.81 359.83 21.01 365.67 17.21 356.91 13.41 362.75 9.61 351.89 5.82 357.32 2.02 352.73 -1.78 361.92 -5.58 352.31 -9.37 357.74 -13.17 353.98 -16.97 355.65 -20.77 351.89 -24.57 354.4 -28.36 351.89 -24.57 349.39 -20.77 351.89 -16.97 348.14 -13.17 349.81 -9.37 346.05 -5.58 351.48 -1.78 341.87 2.02 351.06 5.82 346.47 9.61 351.89 13.41 341.04 17.21 346.88 21.01 338.11 24.81 343.96 28.6 330.6 32.4 348.14 36.2 339.78 40 350.22 43.79 341.04 47.59 348.97 51.39 329.34 55.19 341.87 58.98 320.58 62.78 340.62 66.58 307.63 70.38 333.1 74.18 308.05 77.97 338.95 81.77 311.39 85.57 338.53 89.37 318.49 93.16 343.13 96.96 334.77 100.76 338.53 104.56 330.6 108.35 342.71 112.15 325.17 115.95 335.61 119.75 332.69 123.55 350.64 127.34 344.38 131.14 350.64 134.94 342.29 138.74 350.22 142.53 340.2 146.33 350.22 150.13 344.8 153.93 350.64 157.73 339.37 161.52 350.64 165.32 327.26 169.12 341.87 172.92 320.99 176.71 339.37 180.51 308.88 184.31 347.3 188.11 318.49 191.9 347.72 195.7 332.27 199.5 349.39 203.3 338.53 207.1 349.39 210.89 328.09 214.69 347.72 218.49 341.04 222.29 348.97 226.08 346.88 229.88 349.81 233.68 344.38 237.48 350.64 241.28 349.39 245.07 351.06 248.87 344.38 252.67 350.64 256.47 345.63 260.26 349.81 264.06 348.97 267.86 350.64 271.66 349.39 275.45 351.06 279.25 345.63 283.05 350.64 286.85 336.03 290.65 350.64 294.44 327.67 298.24 340.62 302.04 320.99 305.84 335.19 309.63 309.72 313.43 331.43 317.23 307.21 321.03 321.83 324.83 308.88 328.62 330.18 332.42 308.05 336.22 338.53 340.02 315.15 343.81 341.04 347.61 316.82 351.41 343.13 355.21 326.42 359 346.05 362.8 333.1 366.6 348.97 370.4 339.78 374.2 347.3 377.99 343.96 381.79 348.97 385.59 338.95 389.39 350.22 393.18 342.71 396.98 350.64 400.78 338.95 404.58 350.64 408.37 344.38 412.17 350.64 415.97 348.55 419.77 350.22 423.57 344.8 427.36 350.22 431.16 345.63 434.96 350.22 438.76 347.72 442.55 349.81 446.35 328.51 450.15 344.8 453.95 334.77 458.41 351.89 462.21 349.39 466.01 351.89 469.81 348.14 473.6 349.81 477.4 346.05 481.2 351.48 485 341.87 488.8 351.06 492.59 346.47 496.39 351.89 500.19 341.04 503.99 346.88 507.78 338.11 511.58 343.96 515.38 330.6 519.18 348.14 522.98 339.78 526.77 350.22 530.57 341.04 534.37 348.97 538.17 329.34 541.96 341.87 545.76 320.58 549.56 340.62 553.36 307.63 557.15 333.1 560.95 308.05 564.75 338.95 568.55 311.39 572.35 338.53 576.14 318.49 579.94 343.13 583.74 334.77 587.54 338.53 591.33 330.6 595.13 342.71 598.93 325.17 602.73 335.61 606.53 332.69 610.32 350.64 614.12 344.38 617.92 350.64 621.72 342.29 625.51 350.22 629.31 340.2 633.11 350.22 636.91 344.8 640.7 350.64 644.5 339.37 648.3 350.64 652.1 327.26 655.9 341.87 659.69 320.99 663.49 339.37 667.29 308.88 671.09 347.3 674.88 318.49 678.68 347.72 682.48 332.27 686.28 349.39 690.07 338.53 693.87 349.39 697.67 328.09 701.47 347.72 705.27 341.04 709.06 348.97 712.86 346.88 716.66 349.81 720.46 344.38 724.25 350.64 728.05 349.39 731.85 351.06 735.65 344.38 739.45 350.64 743.24 345.63 747.04 349.81 750.84 348.97 754.64 350.64 758.43 349.39 762.23 351.06 766.03 345.63 769.83 350.64 773.62 336.03 777.42 350.64 781.22 327.67 785.02 340.62 788.82 320.99 792.61 335.19 796.41 309.72 800.21 331.43 804.01 307.21 807.8 321.83 811.6 308.88 815.4 330.18 819.2 308.05 823 338.53 826.79 315.15 830.59 341.04 834.39 316.82 838.19 343.13 841.98 326.42 845.78 346.05 849.58 333.1 853.38 348.97 857.17 339.78 860.97 347.3 864.77 343.96 868.57 348.97 872.37 338.95 876.16 350.22 879.96 342.71 883.76 350.64 887.56 338.95 891.35 350.64 895.15 344.38 898.95 350.64 902.75 348.55 906.54 350.22 910.34 344.8 914.14 350.22 917.94 345.63 921.74 350.22 925.53 347.72 929.33 349.81 933.13 328.51 936.93 344.8 940.72 334.77 944.52 351.89"
            />
          </g>
          <g class="cls-4">
            <polygon
              class="cls-9"
              points="944.52 351.89 940.72 356.02 936.93 353.6 933.13 357.52 929.33 352.4 925.53 352.9 921.74 352.3 917.94 353.4 914.14 352.3 910.34 353.6 906.54 352.3 902.75 352.7 898.95 352.2 895.15 353.7 891.35 352.2 887.56 355.01 883.76 352.2 879.96 354.11 876.16 352.3 872.37 355.01 868.57 352.6 864.77 353.8 860.97 353 857.17 354.81 853.38 352.6 849.58 356.42 845.78 353.3 841.98 358.03 838.19 354.01 834.39 360.34 830.59 354.51 826.79 360.74 823 355.11 819.2 362.45 815.4 357.12 811.6 362.25 807.8 359.13 804.01 362.65 800.21 356.82 796.41 362.05 792.61 355.91 788.82 359.33 785.02 354.61 781.22 357.72 777.42 352.2 773.62 355.71 769.83 352.2 766.03 353.4 762.23 352.1 758.43 352.5 754.64 352.2 750.84 352.6 747.04 352.4 743.24 353.4 739.45 352.2 735.65 353.7 731.85 352.1 728.05 352.5 724.25 352.2 720.46 353.7 716.66 352.4 712.86 353.1 709.06 352.6 705.27 354.51 701.47 352.9 697.67 357.62 693.87 352.5 690.07 355.11 686.28 352.5 682.48 356.62 678.68 352.9 674.88 359.94 671.09 353 667.29 362.25 663.49 354.91 659.69 359.33 655.9 354.31 652.1 357.82 648.3 352.2 644.5 354.91 640.7 352.2 636.91 353.6 633.11 352.3 629.31 354.71 625.51 352.3 621.72 354.21 617.92 352.2 614.12 353.7 610.32 352.2 606.53 356.52 602.73 355.81 598.93 358.33 595.13 354.11 591.33 357.02 587.54 355.11 583.74 356.02 579.94 354.01 576.14 359.94 572.35 355.11 568.55 361.64 564.75 355.01 560.95 362.45 557.15 356.42 553.36 362.55 549.56 354.61 545.76 359.43 541.96 354.31 538.17 357.32 534.37 352.6 530.57 354.51 526.77 352.3 522.98 354.81 519.18 352.8 515.38 357.02 511.58 353.8 507.78 355.21 503.99 353.1 500.19 354.51 496.39 351.89 492.59 353.2 488.8 352.1 485 354.31 481.2 351.99 477.4 353.3 473.6 352.4 469.81 352.8 466.01 351.89 462.21 352.5 458.41 351.89 453.95 356.02 450.15 353.6 446.35 357.52 442.55 352.4 438.76 352.9 434.96 352.3 431.16 353.4 427.36 352.3 423.57 353.6 419.77 352.3 415.97 352.7 412.17 352.2 408.37 353.7 404.58 352.2 400.78 355.01 396.98 352.2 393.18 354.11 389.39 352.3 385.59 355.01 381.79 352.6 377.99 353.8 374.2 353 370.4 354.81 366.6 352.6 362.8 356.42 359 353.3 355.21 358.03 351.41 354.01 347.61 360.34 343.81 354.51 340.02 360.74 336.22 355.11 332.42 362.45 328.62 357.12 324.83 362.25 321.03 359.13 317.23 362.65 313.43 356.82 309.63 362.05 305.84 355.91 302.04 359.33 298.24 354.61 294.44 357.72 290.65 352.2 286.85 355.71 283.05 352.2 279.25 353.4 275.45 352.1 271.66 352.5 267.86 352.2 264.06 352.6 260.26 352.4 256.47 353.4 252.67 352.2 248.87 353.7 245.07 352.1 241.28 352.5 237.48 352.2 233.68 353.7 229.88 352.4 226.08 353.1 222.29 352.6 218.49 354.51 214.69 352.9 210.89 357.62 207.1 352.5 203.3 355.11 199.5 352.5 195.7 356.62 191.9 352.9 188.11 359.94 184.31 353 180.51 362.25 176.71 354.91 172.92 359.33 169.12 354.31 165.32 357.82 161.52 352.2 157.73 354.91 153.93 352.2 150.13 353.6 146.33 352.3 142.53 354.71 138.74 352.3 134.94 354.21 131.14 352.2 127.34 353.7 123.55 352.2 119.75 356.52 115.95 355.81 112.15 358.33 108.35 354.11 104.56 357.02 100.76 355.11 96.96 356.02 93.16 354.01 89.37 359.94 85.57 355.11 81.77 361.64 77.97 355.01 74.18 362.45 70.38 356.42 66.58 362.55 62.78 354.61 58.98 359.43 55.19 354.31 51.39 357.32 47.59 352.6 43.79 354.51 40 352.3 36.2 354.81 32.4 352.8 28.6 357.02 24.81 353.8 21.01 355.21 17.21 353.1 13.41 354.51 9.61 351.89 5.82 353.2 2.02 352.1 -1.78 354.31 -5.58 351.99 -9.37 353.3 -13.17 352.4 -16.97 352.8 -20.77 351.89 -24.57 352.5 -28.36 351.89 -24.57 351.29 -20.77 351.89 -16.97 350.99 -13.17 351.39 -9.37 350.49 -5.58 351.79 -1.78 349.48 2.02 351.69 5.82 350.59 9.61 351.89 13.41 349.28 17.21 350.69 21.01 348.58 24.81 349.98 28.6 346.77 32.4 350.99 36.2 348.98 40 351.49 43.79 349.28 47.59 351.19 51.39 346.47 55.19 349.48 58.98 344.36 62.78 349.18 66.58 341.24 70.38 347.37 74.18 341.34 77.97 348.78 81.77 342.14 85.57 348.68 89.37 343.85 93.16 349.78 96.96 347.77 100.76 348.68 104.56 346.77 108.35 349.68 112.15 345.46 115.95 347.97 119.75 347.27 123.55 351.59 127.34 350.09 131.14 351.59 134.94 349.58 138.74 351.49 142.53 349.08 146.33 351.49 150.13 350.19 153.93 351.59 157.73 348.88 161.52 351.59 165.32 345.96 169.12 349.48 172.92 344.46 176.71 348.88 180.51 341.54 184.31 350.79 188.11 343.85 191.9 350.89 195.7 347.17 199.5 351.29 203.3 348.68 207.1 351.29 210.89 346.17 214.69 350.89 218.49 349.28 222.29 351.19 226.08 350.69 229.88 351.39 233.68 350.09 237.48 351.59 241.28 351.29 245.07 351.69 248.87 350.09 252.67 351.59 256.47 350.39 260.26 351.39 264.06 351.19 267.86 351.59 271.66 351.29 275.45 351.69 279.25 350.39 283.05 351.59 286.85 348.07 290.65 351.59 294.44 346.06 298.24 349.18 302.04 344.46 305.84 347.87 309.63 341.74 313.43 346.97 317.23 341.14 321.03 344.66 324.83 341.54 328.62 346.67 332.42 341.34 336.22 348.68 340.02 343.05 343.81 349.28 347.61 343.45 351.41 349.78 355.21 345.76 359 350.49 362.8 347.37 366.6 351.19 370.4 348.98 374.2 350.79 377.99 349.98 381.79 351.19 385.59 348.78 389.39 351.49 393.18 349.68 396.98 351.59 400.78 348.78 404.58 351.59 408.37 350.09 412.17 351.59 415.97 351.09 419.77 351.49 423.57 350.19 427.36 351.49 431.16 350.39 434.96 351.49 438.76 350.89 442.55 351.39 446.35 346.27 450.15 350.19 453.95 347.77 458.41 351.89 462.21 351.29 466.01 351.89 469.81 350.99 473.6 351.39 477.4 350.49 481.2 351.79 485 349.48 488.8 351.69 492.59 350.59 496.39 351.89 500.19 349.28 503.99 350.69 507.78 348.58 511.58 349.98 515.38 346.77 519.18 350.99 522.98 348.98 526.77 351.49 530.57 349.28 534.37 351.19 538.17 346.47 541.96 349.48 545.76 344.36 549.56 349.18 553.36 341.24 557.15 347.37 560.95 341.34 564.75 348.78 568.55 342.14 572.35 348.68 576.14 343.85 579.94 349.78 583.74 347.77 587.54 348.68 591.33 346.77 595.13 349.68 598.93 345.46 602.73 347.97 606.53 347.27 610.32 351.59 614.12 350.09 617.92 351.59 621.72 349.58 625.51 351.49 629.31 349.08 633.11 351.49 636.91 350.19 640.7 351.59 644.5 348.88 648.3 351.59 652.1 345.96 655.9 349.48 659.69 344.46 663.49 348.88 667.29 341.54 671.09 350.79 674.88 343.85 678.68 350.89 682.48 347.17 686.28 351.29 690.07 348.68 693.87 351.29 697.67 346.17 701.47 350.89 705.27 349.28 709.06 351.19 712.86 350.69 716.66 351.39 720.46 350.09 724.25 351.59 728.05 351.29 731.85 351.69 735.65 350.09 739.45 351.59 743.24 350.39 747.04 351.39 750.84 351.19 754.64 351.59 758.43 351.29 762.23 351.69 766.03 350.39 769.83 351.59 773.62 348.07 777.42 351.59 781.22 346.06 785.02 349.18 788.82 344.46 792.61 347.87 796.41 341.74 800.21 346.97 804.01 341.14 807.8 344.66 811.6 341.54 815.4 346.67 819.2 341.34 823 348.68 826.79 343.05 830.59 349.28 834.39 343.45 838.19 349.78 841.98 345.76 845.78 350.49 849.58 347.37 853.38 351.19 857.17 348.98 860.97 350.79 864.77 349.98 868.57 351.19 872.37 348.78 876.16 351.49 879.96 349.68 883.76 351.59 887.56 348.78 891.35 351.59 895.15 350.09 898.95 351.59 902.75 351.09 906.54 351.49 910.34 350.19 914.14 351.49 917.94 350.39 921.74 351.49 925.53 350.89 929.33 351.39 933.13 346.27 936.93 350.19 940.72 347.77 944.52 351.89"
            />
          </g>
          <g>
            <path
              class="cls-2"
              d="m-63.11,351.89c333.91-.79,708.47-.8,1042.38,0-333.91.8-708.47.79-1042.38,0h0Z"
            />
            <path
              class="cls-2"
              d="m-28.36,351.89c311.65-.79,661.24-.8,972.89,0-311.65.8-661.24.79-972.89,0h0Z"
            />
          </g>
        </g>
      </g>
    </g>
  </g>
</svg>
