<svg width="88" height="18" viewBox="0 0 88 18" fill="none" xmlns="http://www.w3.org/2000/svg">
<path d="M8.5 0.0996246L10.4084 6.07625H16.584L11.5878 9.77L13.4962 15.7466L8.5 12.0529L3.50383 15.7466L5.41219 9.77L0.416019 6.07625H6.59163L8.5 0.0996246Z" fill="#F4DD15"/>
<path d="M26.5 0.0996246L28.4084 6.07625H34.584L29.5878 9.77L31.4962 15.7466L26.5 12.0529L21.5038 15.7466L23.4122 9.77L18.416 6.07625H24.5916L26.5 0.0996246Z" fill="#F4DD15"/>
<path d="M44 0.0996246L45.7961 6.07625H51.6085L46.9062 9.77L48.7023 15.7466L44 12.0529L39.2977 15.7466L41.0938 9.77L36.3915 6.07625H42.2039L44 0.0996246Z" fill="#F4DD15"/>
<path d="M61.5 0.0996246L63.4084 6.07625H69.584L64.5878 9.77L66.4962 15.7466L61.5 12.0529L56.5038 15.7466L58.4122 9.77L53.416 6.07625H59.5916L61.5 0.0996246Z" fill="#D9D9D9"/>
<path d="M79.5 0.0996246L81.4084 6.07625H87.584L82.5878 9.77L84.4962 15.7466L79.5 12.0529L74.5038 15.7466L76.4122 9.77L71.416 6.07625H77.5916L79.5 0.0996246Z" fill="#D9D9D9"/>
</svg>
